<?xml version="1.0" encoding="UTF-8" standalone="no"?>
<!-- Created with Inkscape (http://www.inkscape.org/) -->

<svg
   xmlns:dc="http://purl.org/dc/elements/1.1/"
   xmlns:cc="http://creativecommons.org/ns#"
   xmlns:rdf="http://www.w3.org/1999/02/22-rdf-syntax-ns#"
   xmlns:svg="http://www.w3.org/2000/svg"
   xmlns="http://www.w3.org/2000/svg"
   xmlns:sodipodi="http://sodipodi.sourceforge.net/DTD/sodipodi-0.dtd"
   xmlns:inkscape="http://www.inkscape.org/namespaces/inkscape"
   id="svg2"
   version="1.1"
   inkscape:version="0.48.4 r9939"
   width="47.075"
   height="47.07375"
   xml:space="preserve"
   sodipodi:docname="logo.pdf"><metadata
     id="metadata8"><rdf:RDF><cc:Work
         rdf:about=""><dc:format>image/svg+xml</dc:format><dc:type
           rdf:resource="http://purl.org/dc/dcmitype/StillImage" /><dc:title></dc:title></cc:Work></rdf:RDF></metadata><defs
     id="defs6"><clipPath
       clipPathUnits="userSpaceOnUse"
       id="clipPath20"><path
         d="M 0,0 38,0 38,38 0,38 0,0 z"
         id="path22" /></clipPath></defs><sodipodi:namedview
     pagecolor="#ffffff"
     bordercolor="#666666"
     borderopacity="1"
     objecttolerance="10"
     gridtolerance="10"
     guidetolerance="10"
     inkscape:pageopacity="0"
     inkscape:pageshadow="2"
     inkscape:window-width="1920"
     inkscape:window-height="1018"
     id="namedview4"
     showgrid="false"
     inkscape:zoom="5.0134099"
     inkscape:cx="24.135896"
     inkscape:cy="23.536875"
     inkscape:window-x="-8"
     inkscape:window-y="-8"
     inkscape:window-maximized="1"
     inkscape:current-layer="g10" /><g
     id="g10"
     inkscape:groupmode="layer"
     inkscape:label="logo"
     transform="matrix(1.25,0,0,-1.25,0,47.07375)"><g
       id="g12" /><g
       id="g14"
       inkscape:export-filename="C:\Users\Piiit\svn\Thesis\img\logo.png"
       inkscape:export-xdpi="300"
       inkscape:export-ydpi="300"><g
         id="g16"
         transform="translate(0,-0.341)"><g
           id="g18" /><g
           id="g24"><g
             clip-path="url(#clipPath20)"
             id="g26"><g
               id="g28"><path
                 d="m 18.82,7.59 c -0.222,0 -0.402,0.18 -0.402,0.398 0,0.223 0.18,0.403 0.402,0.403 0.223,0 0.403,-0.18 0.403,-0.403 0,-0.218 -0.18,-0.398 -0.403,-0.398 m 0,1.355 c -0.527,0 -0.953,-0.429 -0.953,-0.957 0,-0.523 0.426,-0.953 0.953,-0.953 0.528,0 0.953,0.43 0.953,0.953 0,0.528 -0.425,0.957 -0.953,0.957"
                 style="fill:#287ac8;fill-opacity:1;fill-rule:evenodd;stroke:none"
                 id="path30" /><path
                 d="m 19.953,9.34 c -0.219,0 -0.398,0.18 -0.398,0.402 0,0.223 0.179,0.403 0.398,0.403 0.223,0 0.402,-0.18 0.402,-0.403 0,-0.222 -0.179,-0.402 -0.402,-0.402 m 0,1.355 C 19.43,10.695 19,10.27 19,9.742 c 0,-0.527 0.43,-0.953 0.953,-0.953 0.527,0 0.957,0.426 0.957,0.953 0,0.528 -0.43,0.953 -0.957,0.953"
                 style="fill:#287ac8;fill-opacity:1;fill-rule:evenodd;stroke:none"
                 id="path32" /><path
                 d="m 17.66,9.34 c -0.219,0 -0.402,0.18 -0.402,0.402 0,0.223 0.183,0.403 0.402,0.403 0.223,0 0.403,-0.18 0.403,-0.403 0,-0.222 -0.18,-0.402 -0.403,-0.402 m 0,1.355 c -0.527,0 -0.953,-0.425 -0.953,-0.953 0,-0.527 0.426,-0.953 0.953,-0.953 0.528,0 0.953,0.426 0.953,0.953 0,0.528 -0.425,0.953 -0.953,0.953"
                 style="fill:#287ac8;fill-opacity:1;fill-rule:evenodd;stroke:none"
                 id="path34" /><path
                 d="m 18.82,11.176 c -0.222,0 -0.398,0.176 -0.398,0.398 0,0.223 0.176,0.403 0.398,0.403 0.223,0 0.403,-0.18 0.403,-0.403 0,-0.222 -0.18,-0.398 -0.403,-0.398 m 0,1.351 c -0.527,0 -0.953,-0.425 -0.953,-0.953 0,-0.523 0.426,-0.953 0.953,-0.953 0.528,0 0.953,0.43 0.953,0.953 0,0.528 -0.425,0.953 -0.953,0.953"
                 style="fill:#287ac8;fill-opacity:1;fill-rule:evenodd;stroke:none"
                 id="path36" /><path
                 d="m 21.043,11.176 c -0.219,0 -0.402,0.176 -0.402,0.398 0,0.223 0.183,0.403 0.402,0.403 0.223,0 0.402,-0.18 0.402,-0.403 0,-0.222 -0.179,-0.398 -0.402,-0.398 m 0,1.351 c -0.527,0 -0.953,-0.425 -0.953,-0.953 0,-0.523 0.426,-0.953 0.953,-0.953 0.527,0 0.953,0.43 0.953,0.953 0,0.528 -0.426,0.953 -0.953,0.953"
                 style="fill:#287ac8;fill-opacity:1;fill-rule:evenodd;stroke:none"
                 id="path38" /><path
                 d="m 16.605,11.176 c -0.222,0 -0.402,0.176 -0.402,0.398 0,0.223 0.18,0.403 0.402,0.403 0.219,0 0.399,-0.18 0.399,-0.403 0,-0.222 -0.18,-0.398 -0.399,-0.398 m 0,1.351 c -0.527,0 -0.953,-0.425 -0.953,-0.953 0,-0.523 0.426,-0.953 0.953,-0.953 0.528,0 0.954,0.43 0.954,0.953 0,0.528 -0.426,0.953 -0.954,0.953"
                 style="fill:#287ac8;fill-opacity:1;fill-rule:evenodd;stroke:none"
                 id="path40" /><path
                 d="m 28.145,16.207 c -0.692,0.203 -1.051,0.766 -1.204,1.473 l -0.613,2.828 c 0.07,0.113 0.145,0.246 0.227,0.375 0.261,0.164 0.57,0.394 0.722,0.547 l 0.844,-3.821 c 0.047,-0.195 0.141,-0.336 0.258,-0.511 0.148,-0.219 0.648,-0.508 0.648,-0.746 0,-0.289 -0.574,-0.235 -0.882,-0.145 m -0.25,-2.766 c 0,-0.277 -0.739,0.036 -1.098,0.293 -0.492,0.352 -0.883,0.914 -1.051,1.664 l -0.75,3.477 0.102,0.094 c 0.347,0.308 0.578,0.574 0.789,0.867 l 0.929,-4.328 c 0.047,-0.36 0.106,-0.559 0.247,-0.891 0.218,-0.515 0.832,-0.906 0.832,-1.176 m -1.391,-2.066 c 0.004,-0.352 -0.906,0.266 -1.27,0.684 -0.441,0.504 -0.73,0.879 -0.851,1.379 -0.567,2.363 -0.469,2.195 -0.93,4.414 0.352,0.156 0.672,0.359 1.008,0.609 l 1.07,-5.008 c 0.11,-0.387 0.188,-0.598 0.352,-0.965 0.203,-0.453 0.617,-0.898 0.621,-1.113 m -1.473,-1.84 c 0.032,-0.367 -0.699,-0.14 -1.019,0.137 -0.516,0.453 -0.699,0.781 -0.824,1.379 l -1.372,6.367 c 0.387,0.055 0.735,0.121 1.051,0.215 l 1.379,-6.535 c 0.051,-0.246 0.152,-0.442 0.266,-0.657 0.386,-0.718 0.496,-0.675 0.519,-0.906 M 21.367,13.98 C 20.77,13.758 20.555,13.641 20,13.195 c -0.32,0.27 -0.594,0.403 -0.898,0.539 l 0.011,4.496 c 0.305,0.243 0.602,0.407 0.899,0.551 0.316,0.153 0.566,0.227 0.824,0.282 l 1.078,-4.915 C 21.738,14.105 21.586,14.063 21.367,13.98 m -3.762,5.508 c -0.273,0.086 -0.503,0.137 -0.73,0.168 l 0.219,0.965 c 0.398,-0.113 0.617,-0.203 0.98,-0.398 0.297,-0.16 0.457,-0.266 0.719,-0.477 0.266,0.211 0.426,0.317 0.719,0.477 0.363,0.195 0.586,0.285 0.98,0.398 l 0.211,-0.898 c -0.148,-0.032 -0.32,-0.078 -0.57,-0.172 -0.406,-0.149 -0.836,-0.344 -1.309,-0.664 -0.437,0.301 -0.715,0.437 -1.219,0.601 m 0.075,-6.293 c -0.5,0.422 -0.84,0.551 -1.43,0.789 -0.219,0.086 -0.387,0.149 -0.562,0.204 l 1.058,4.835 c 0.285,-0.058 0.531,-0.132 0.867,-0.281 0.379,-0.164 0.629,-0.304 0.903,-0.512 l 0.011,-4.468 C 18.238,13.621 18,13.461 17.68,13.195 M 14.41,11.051 C 14.285,10.453 14.102,10.125 13.586,9.672 13.27,9.395 12.535,9.168 12.566,9.535 c 0.024,0.231 0.133,0.188 0.52,0.906 0.117,0.215 0.215,0.411 0.266,0.657 l 1.382,6.535 c 0.313,-0.094 0.661,-0.16 1.047,-0.215 L 14.41,11.051 z m -2.043,1.008 c -0.363,-0.418 -1.277,-1.036 -1.273,-0.684 0.004,0.215 0.418,0.66 0.621,1.113 0.164,0.367 0.242,0.578 0.351,0.965 l 1.071,5.008 c 0.336,-0.25 0.656,-0.453 1.008,-0.609 -0.461,-2.219 -0.364,-2.051 -0.93,-4.414 -0.121,-0.5 -0.41,-0.875 -0.848,-1.379 m -1.566,1.675 c -0.356,-0.257 -1.098,-0.57 -1.098,-0.293 0,0.27 0.613,0.661 0.832,1.176 0.141,0.332 0.199,0.531 0.246,0.891 l 0.93,4.328 c 0.211,-0.293 0.441,-0.559 0.789,-0.867 l 0.102,-0.094 -0.75,-3.477 c -0.168,-0.75 -0.563,-1.312 -1.051,-1.664 m -1.348,2.473 c -0.305,-0.09 -0.879,-0.144 -0.879,0.145 0,0.238 0.496,0.527 0.645,0.746 0.117,0.175 0.211,0.316 0.258,0.511 l 0.843,3.821 c 0.153,-0.153 0.461,-0.383 0.723,-0.547 0.082,-0.129 0.156,-0.262 0.227,-0.375 L 10.66,17.68 C 10.504,16.973 10.148,16.41 9.453,16.207 m 6.672,3.004 -0.258,-1.289 c -0.578,0.07 -1.191,0.269 -1.668,0.516 -0.996,0.519 -1.801,1.23 -2.258,1.98 0.266,-0.184 0.594,-0.332 0.922,-0.449 1.25,-0.449 1.996,-0.621 3.262,-0.758 m -6.902,5.664 c 0,1.027 0.871,1.969 1.898,1.969 1.027,0 1.859,-0.832 1.859,-1.864 0,-0.621 -0.253,-1.085 -0.726,-1.421 0.629,-0.891 1.18,-1.395 1.961,-1.852 0.617,-0.363 1.273,-0.633 2.281,-0.844 L 16.25,19.711 c -1.746,0.184 -3.238,0.617 -4.516,1.352 -1.699,0.98 -2.511,2.265 -2.511,3.812 m 8.297,-1.633 1.273,-0.015 c 0.602,0 1.578,-0.079 1.578,-0.719 0,-0.418 -1.016,-0.653 -1.598,-0.653 -0.089,0 -1.144,0.161 -1.355,0.543 -0.156,0.282 -0.078,0.567 0.102,0.844 m -0.157,-1.574 c 0.586,-0.266 0.832,-0.305 1.211,-0.438 0.317,-0.113 0.551,-0.226 0.871,-0.41 -0.297,-0.129 -0.277,-0.16 -0.652,-0.386 -0.613,0.371 -0.641,0.41 -1.363,0.668 l -0.438,0.168 c -0.621,0.32 -1.148,0.753 -1.148,1.5 0,0.246 0.109,0.519 0.347,0.699 l 0.668,-0.125 c -0.476,-0.633 -0.293,-1.321 0.504,-1.676 m -2.488,3.73 c 0,0.563 0.199,0.907 0.582,1.321 -0.203,0.297 -0.164,0.672 0.094,0.922 0.277,0.265 0.695,0.273 0.98,0.019 l 0.547,0.414 c 0.059,-0.164 0.102,-0.261 0.094,-0.433 -0.016,-0.661 -1.375,-1.114 -1.375,-2.055 0,-1.25 2.074,-1.121 2.996,-1.121 0.844,-0.016 1.539,-0.074 2.16,-0.469 0.477,-0.308 0.848,-0.648 0.848,-1.23 0,-0.93 -0.832,-1.403 -1.754,-1.711 -0.164,0.133 -0.317,0.215 -0.625,0.328 1.312,0.238 1.641,0.726 1.641,1.293 0,0.707 -1.34,1.16 -2.27,1.16 -1.637,-0.074 -3.918,0.375 -3.918,1.562 m 6.914,0.188 c 0,0.941 -1.355,1.394 -1.375,2.055 -0.004,0.172 0.039,0.269 0.094,0.433 l 0.547,-0.414 c 0.285,0.254 0.707,0.246 0.98,-0.019 0.262,-0.25 0.297,-0.625 0.094,-0.922 0.453,-0.317 0.574,-0.727 0.574,-1.289 0,-0.422 -0.437,-0.907 -1.055,-1.16 -0.128,0.101 -0.269,0.195 -0.449,0.3 -0.086,0.051 -0.16,0.082 -0.246,0.125 0.508,0.086 0.836,0.407 0.836,0.891 m 3.953,-5.156 c -0.461,-0.75 -1.308,-1.473 -2.32,-1.965 -0.617,-0.301 -1.125,-0.473 -1.703,-0.543 l -0.258,1.289 c 1.266,0.137 1.512,0.172 2.777,0.562 0.399,0.125 1.176,0.45 1.504,0.657 m -2.371,1.277 c 0.781,0.457 1.336,0.961 1.961,1.852 -0.469,0.336 -0.727,0.8 -0.727,1.421 0,1.032 0.833,1.864 1.86,1.864 1.027,0 1.898,-0.942 1.898,-1.969 0,-1.547 -0.812,-2.832 -2.511,-3.812 -1.274,-0.735 -2.77,-1.168 -4.516,-1.352 l -0.246,1.152 c 1.008,0.211 1.664,0.481 2.281,0.844 m 5.527,-4.348 c -0.183,0.243 -0.23,0.411 -0.32,0.766 l -0.812,3.828 c 1.117,1.102 1.152,2.516 1.152,2.852 0,0.847 -0.457,1.761 -1.121,2.195 0.023,0.059 0.035,0.121 0.035,0.191 0,0.278 -0.223,0.5 -0.5,0.5 -0.227,0 -0.422,-0.132 -0.488,-0.336 -0.121,0.02 -0.25,0.032 -0.379,0.032 -0.176,0 -0.324,-0.004 -0.488,-0.039 -0.071,0.191 -0.254,0.324 -0.469,0.324 -0.278,0 -0.504,-0.227 -0.504,-0.5 0,-0.086 0.023,-0.168 0.062,-0.238 -0.211,-0.153 -0.418,-0.336 -0.57,-0.551 -0.07,0.039 -0.152,0.062 -0.238,0.062 -0.278,0 -0.5,-0.226 -0.5,-0.504 0,-0.222 0.156,-0.394 0.355,-0.464 -0.031,-0.161 -0.05,-0.325 -0.05,-0.497 0,-0.589 0.214,-1.132 0.57,-1.55 -0.356,-0.41 -0.574,-0.629 -1,-0.957 -0.57,-0.438 -1.09,-0.625 -1.637,-0.789 0.313,0.304 0.512,0.625 0.512,1.062 0,0.41 -0.141,0.668 -0.371,1.035 0.695,0.278 1.078,0.766 1.179,1.504 0.086,0.617 -0.054,1.063 -0.472,1.528 0.121,0.472 0.004,0.871 -0.36,1.203 -0.371,0.347 -0.804,0.429 -1.277,0.246 l -0.793,0.66 c -0.23,-0.152 -0.348,-0.281 -0.469,-0.527 -0.293,-0.571 -0.132,-1.207 0.282,-1.622 0.402,-0.406 0.98,-0.648 0.98,-1.226 0,-0.543 -1.508,-0.508 -2.414,-0.508 -0.902,0 -2.398,-0.035 -2.398,0.508 0,0.578 0.574,0.82 0.98,1.226 0.41,0.415 0.57,1.051 0.281,1.622 -0.125,0.246 -0.242,0.375 -0.472,0.527 l -0.789,-0.66 c -0.477,0.183 -0.907,0.101 -1.282,-0.246 -0.363,-0.332 -0.48,-0.731 -0.359,-1.203 -0.418,-0.465 -0.555,-0.911 -0.473,-1.528 0.102,-0.738 0.485,-1.226 1.18,-1.504 -0.231,-0.367 -0.371,-0.625 -0.371,-1.035 0,-0.437 0.199,-0.758 0.512,-1.062 -0.547,0.164 -1.067,0.351 -1.637,0.789 -0.426,0.328 -0.645,0.547 -1,0.957 0.359,0.418 0.57,0.961 0.57,1.55 0,0.172 -0.015,0.336 -0.051,0.497 0.2,0.07 0.356,0.242 0.356,0.464 0,0.278 -0.223,0.504 -0.5,0.504 -0.086,0 -0.168,-0.023 -0.238,-0.062 -0.153,0.215 -0.36,0.398 -0.571,0.551 0.039,0.07 0.063,0.152 0.063,0.238 0,0.273 -0.227,0.5 -0.504,0.5 -0.215,0 -0.399,-0.133 -0.469,-0.324 -0.164,0.035 -0.312,0.039 -0.488,0.039 -0.129,0 -0.258,-0.012 -0.379,-0.032 -0.066,0.204 -0.262,0.336 -0.488,0.336 -0.278,0 -0.5,-0.222 -0.5,-0.5 0,-0.07 0.011,-0.132 0.039,-0.191 C 9.137,26.566 8.68,25.652 8.68,24.805 c 0,-0.336 0.035,-1.75 1.152,-2.852 L 9.02,18.125 C 8.93,17.77 8.883,17.602 8.699,17.359 8.484,17.074 7.949,16.746 7.965,16.395 c 0.023,-0.614 0.492,-0.836 1.226,-0.774 0.332,0.024 0.778,0.106 1.102,0.434 L 10.137,15.43 C 10.023,14.941 9.922,14.738 9.695,14.48 9.359,14.098 8.973,13.82 8.973,13.332 c 0,-0.484 0.629,-0.609 1.074,-0.566 0.641,0.062 0.949,0.289 1.394,0.75 -0.234,-0.61 -0.351,-0.864 -0.507,-1.098 -0.352,-0.52 -0.629,-0.926 -0.629,-1.293 0,-0.473 0.64,-0.566 1.105,-0.469 0.582,0.125 1.133,0.547 1.485,1.067 -0.141,-0.368 -0.227,-0.571 -0.383,-0.93 -0.258,-0.578 -0.719,-1.004 -0.719,-1.457 0,-0.43 0.648,-0.617 1.285,-0.52 1.313,0.204 1.742,1.215 1.914,2.172 l 0.571,2.567 c 0.054,-0.028 0.308,-0.086 0.519,-0.18 0.656,-0.285 0.934,-0.465 1.516,-0.996 0.429,0.394 0.765,0.601 1.203,0.797 0.437,-0.196 0.769,-0.403 1.199,-0.797 0.582,0.531 0.863,0.711 1.516,0.996 0.211,0.094 0.464,0.152 0.519,0.18 l 0.57,-2.567 c 0.172,-0.957 0.602,-1.968 1.915,-2.172 0.636,-0.097 1.285,0.09 1.285,0.52 0,0.453 -0.461,0.879 -0.719,1.457 -0.16,0.359 -0.242,0.562 -0.383,0.93 0.352,-0.52 0.906,-0.942 1.488,-1.067 0.461,-0.097 1.102,-0.004 1.102,0.469 0,0.367 -0.277,0.773 -0.629,1.293 -0.156,0.234 -0.273,0.488 -0.504,1.098 0.442,-0.461 0.75,-0.688 1.391,-0.75 0.441,-0.043 1.074,0.082 1.074,0.566 0,0.488 -0.383,0.766 -0.723,1.148 -0.226,0.258 -0.328,0.461 -0.441,0.95 l -0.156,0.625 c 0.324,-0.328 0.769,-0.41 1.101,-0.434 0.739,-0.062 1.207,0.16 1.227,0.774 0.015,0.351 -0.52,0.679 -0.735,0.964"
                 style="fill:#287ac8;fill-opacity:1;fill-rule:evenodd;stroke:none"
                 id="path42" /><path
                 d="m 11.566,25.008 c 0,0.269 -0.218,0.488 -0.488,0.488 -0.269,0 -0.492,-0.219 -0.492,-0.488 0,-0.27 0.223,-0.488 0.492,-0.488 0.27,0 0.488,0.218 0.488,0.488"
                 style="fill:#287ac8;fill-opacity:1;fill-rule:evenodd;stroke:none"
                 id="path44" /><path
                 d="m 26.02,25.008 c 0,0.269 0.218,0.488 0.488,0.488 0.273,0 0.492,-0.219 0.492,-0.488 0,-0.27 -0.219,-0.488 -0.492,-0.488 -0.27,0 -0.488,0.218 -0.488,0.488"
                 style="fill:#287ac8;fill-opacity:1;fill-rule:evenodd;stroke:none"
                 id="path46" /><path
                 d="m 18.875,28.895 c -0.289,0 -0.527,0.234 -0.527,0.527 0,0.293 0.238,0.531 0.527,0.531 0.293,0 0.531,-0.238 0.531,-0.531 0,-0.293 -0.238,-0.527 -0.531,-0.527 m 0,1.632 c -0.609,0 -1.102,-0.496 -1.102,-1.105 0,-0.609 0.493,-1.102 1.102,-1.102 0.609,0 1.102,0.493 1.102,1.102 0,0.609 -0.493,1.105 -1.102,1.105"
                 style="fill:#287ac8;fill-opacity:1;fill-rule:evenodd;stroke:none"
                 id="path48" /><path
                 d="M 6.188,18.25 C 6.137,18.188 6.074,18.156 5.996,18.152 5.918,18.145 5.852,18.172 5.793,18.219 5.738,18.27 5.707,18.336 5.699,18.41 c -0.004,0.078 0.02,0.145 0.067,0.199 0.05,0.059 0.117,0.09 0.191,0.098 0.078,0.004 0.145,-0.019 0.203,-0.07 0.059,-0.051 0.09,-0.114 0.098,-0.188 0.004,-0.078 -0.02,-0.144 -0.07,-0.199"
                 style="fill:#287ac8;fill-opacity:1;fill-rule:evenodd;stroke:none"
                 id="path50" /><path
                 d="M 6.289,17.289 C 6.238,17.23 6.176,17.195 6.102,17.184 6.023,17.176 5.957,17.195 5.895,17.242 c -0.059,0.047 -0.094,0.11 -0.102,0.184 -0.012,0.078 0.008,0.144 0.055,0.203 0.047,0.062 0.109,0.098 0.183,0.105 0.078,0.008 0.149,-0.007 0.207,-0.058 0.063,-0.047 0.098,-0.106 0.106,-0.18 0.011,-0.078 -0.008,-0.148 -0.055,-0.207"
                 style="fill:#287ac8;fill-opacity:1;fill-rule:evenodd;stroke:none"
                 id="path52" /><path
                 d="M 6.477,16.301 C 6.438,16.238 6.379,16.199 6.305,16.18 6.227,16.16 6.16,16.172 6.094,16.215 c -0.067,0.039 -0.106,0.098 -0.125,0.172 -0.016,0.074 -0.004,0.144 0.039,0.207 0.039,0.066 0.097,0.109 0.172,0.125 0.074,0.015 0.144,0.004 0.211,-0.035 0.066,-0.039 0.105,-0.098 0.121,-0.172 0.019,-0.074 0.008,-0.145 -0.035,-0.211"
                 style="fill:#287ac8;fill-opacity:1;fill-rule:evenodd;stroke:none"
                 id="path54" /><path
                 d="M 6.727,15.375 C 6.691,15.309 6.633,15.262 6.559,15.242 6.484,15.219 6.414,15.227 6.348,15.266 c -0.067,0.039 -0.11,0.093 -0.133,0.168 -0.02,0.074 -0.012,0.14 0.027,0.207 0.035,0.07 0.09,0.113 0.164,0.132 0.074,0.02 0.145,0.012 0.215,-0.023 C 6.688,15.711 6.73,15.656 6.75,15.586 6.773,15.512 6.766,15.441 6.727,15.375"
                 style="fill:#287ac8;fill-opacity:1;fill-rule:evenodd;stroke:none"
                 id="path56" /><path
                 d="M 7.066,14.43 C 7.035,14.359 6.984,14.309 6.914,14.281 c -0.074,-0.027 -0.144,-0.027 -0.215,0 -0.07,0.032 -0.117,0.082 -0.148,0.157 -0.028,0.07 -0.028,0.14 0.004,0.21 0.027,0.067 0.078,0.118 0.152,0.149 0.07,0.027 0.141,0.027 0.211,0 C 6.992,14.766 7.039,14.715 7.07,14.645 7.098,14.57 7.098,14.5 7.066,14.43"
                 style="fill:#287ac8;fill-opacity:1;fill-rule:evenodd;stroke:none"
                 id="path58" /><path
                 d="M 7.449,13.566 C 7.422,13.492 7.371,13.441 7.301,13.41 7.23,13.379 7.16,13.375 7.09,13.406 7.016,13.434 6.965,13.48 6.934,13.551 c -0.032,0.07 -0.032,0.14 -0.004,0.211 0.027,0.074 0.078,0.121 0.148,0.156 0.07,0.027 0.141,0.031 0.211,0.004 0.074,-0.027 0.125,-0.074 0.156,-0.145 0.032,-0.07 0.032,-0.14 0.004,-0.211"
                 style="fill:#287ac8;fill-opacity:1;fill-rule:evenodd;stroke:none"
                 id="path60" /><path
                 d="M 7.918,12.695 C 7.898,12.621 7.852,12.563 7.785,12.527 7.719,12.488 7.648,12.48 7.574,12.504 7.5,12.527 7.445,12.57 7.41,12.637 c -0.039,0.066 -0.047,0.136 -0.027,0.211 0.023,0.07 0.066,0.125 0.133,0.164 0.07,0.039 0.14,0.047 0.214,0.023 0.075,-0.019 0.129,-0.062 0.165,-0.129 0.039,-0.066 0.046,-0.14 0.023,-0.211"
                 style="fill:#287ac8;fill-opacity:1;fill-rule:evenodd;stroke:none"
                 id="path62" /><path
                 d="M 8.473,11.855 C 8.461,11.781 8.422,11.719 8.359,11.672 8.297,11.629 8.227,11.613 8.152,11.629 8.074,11.641 8.016,11.68 7.973,11.742 7.926,11.805 7.91,11.875 7.926,11.949 c 0.012,0.074 0.051,0.137 0.117,0.18 0.062,0.043 0.133,0.059 0.207,0.047 C 8.324,12.16 8.387,12.125 8.43,12.063 8.473,12 8.488,11.93 8.473,11.855"
                 style="fill:#287ac8;fill-opacity:1;fill-rule:evenodd;stroke:none"
                 id="path64" /><path
                 d="M 9.055,11.09 C 9.043,11.012 9.008,10.953 8.949,10.906 8.887,10.859 8.82,10.84 8.742,10.848 8.668,10.859 8.605,10.895 8.559,10.953 8.512,11.012 8.492,11.082 8.5,11.156 c 0.012,0.074 0.047,0.137 0.109,0.184 0.059,0.047 0.129,0.07 0.204,0.058 0.078,-0.007 0.14,-0.043 0.183,-0.101 0.051,-0.063 0.07,-0.133 0.059,-0.207"
                 style="fill:#287ac8;fill-opacity:1;fill-rule:evenodd;stroke:none"
                 id="path66" /><path
                 d="M 9.727,10.34 C 9.727,10.262 9.699,10.195 9.641,10.145 9.586,10.09 9.52,10.063 9.445,10.066 c -0.078,0 -0.14,0.028 -0.195,0.086 -0.055,0.051 -0.078,0.118 -0.078,0.196 0,0.074 0.031,0.14 0.086,0.195 0.055,0.051 0.121,0.078 0.199,0.078 C 9.535,10.617 9.598,10.594 9.648,10.539 9.703,10.48 9.73,10.414 9.727,10.34"
                 style="fill:#287ac8;fill-opacity:1;fill-rule:evenodd;stroke:none"
                 id="path68" /><path
                 d="M 10.41,9.684 C 10.41,9.609 10.383,9.543 10.332,9.488 10.277,9.43 10.211,9.402 10.137,9.402 10.059,9.402 9.992,9.426 9.938,9.48 9.883,9.531 9.855,9.598 9.852,9.676 c 0,0.074 0.027,0.14 0.078,0.195 0.054,0.055 0.121,0.086 0.199,0.086 0.074,0 0.141,-0.023 0.195,-0.074 0.055,-0.055 0.086,-0.121 0.086,-0.199"
                 style="fill:#287ac8;fill-opacity:1;fill-rule:evenodd;stroke:none"
                 id="path70" /><path
                 d="M 11.188,9.047 C 11.195,8.973 11.176,8.902 11.129,8.844 11.082,8.781 11.02,8.746 10.941,8.738 10.867,8.73 10.797,8.746 10.738,8.793 10.676,8.844 10.645,8.906 10.633,8.98 c -0.008,0.075 0.012,0.141 0.058,0.204 0.047,0.058 0.11,0.097 0.184,0.105 0.078,0.008 0.145,-0.008 0.207,-0.055 0.059,-0.046 0.094,-0.109 0.106,-0.187"
                 style="fill:#287ac8;fill-opacity:1;fill-rule:evenodd;stroke:none"
                 id="path72" /><path
                 d="M 12.004,8.484 C 12.02,8.41 12.004,8.34 11.965,8.273 11.922,8.211 11.863,8.172 11.789,8.152 c -0.078,-0.011 -0.144,0 -0.211,0.039 -0.062,0.043 -0.101,0.102 -0.121,0.176 -0.012,0.074 0,0.145 0.043,0.207 0.043,0.067 0.102,0.106 0.176,0.125 0.074,0.016 0.144,0.004 0.207,-0.039 0.066,-0.043 0.105,-0.101 0.121,-0.176"
                 style="fill:#287ac8;fill-opacity:1;fill-rule:evenodd;stroke:none"
                 id="path74" /><path
                 d="M 12.828,7.996 C 12.848,7.922 12.84,7.852 12.801,7.785 12.762,7.715 12.703,7.676 12.633,7.656 12.559,7.633 12.488,7.645 12.418,7.684 c -0.066,0.039 -0.109,0.093 -0.125,0.168 -0.02,0.074 -0.012,0.144 0.027,0.207 0.039,0.07 0.094,0.113 0.168,0.132 0.075,0.02 0.145,0.012 0.211,-0.023 0.067,-0.043 0.11,-0.098 0.129,-0.172"
                 style="fill:#287ac8;fill-opacity:1;fill-rule:evenodd;stroke:none"
                 id="path76" /><path
                 d="M 13.734,7.555 C 13.758,7.48 13.758,7.41 13.727,7.34 13.695,7.27 13.645,7.223 13.574,7.195 13.5,7.168 13.43,7.168 13.359,7.199 c -0.07,0.031 -0.117,0.086 -0.144,0.156 -0.027,0.071 -0.024,0.141 0.004,0.211 0.031,0.071 0.086,0.118 0.156,0.149 0.07,0.027 0.141,0.027 0.211,-0.004 0.07,-0.035 0.121,-0.086 0.148,-0.156"
                 style="fill:#287ac8;fill-opacity:1;fill-rule:evenodd;stroke:none"
                 id="path78" /><path
                 d="m 14.609,7.203 c 0.032,-0.07 0.032,-0.144 0,-0.215 -0.027,-0.07 -0.078,-0.121 -0.148,-0.152 -0.07,-0.031 -0.141,-0.031 -0.211,0 -0.07,0.027 -0.125,0.078 -0.152,0.148 -0.028,0.071 -0.028,0.141 0,0.211 0.027,0.071 0.078,0.121 0.148,0.153 0.07,0.031 0.141,0.031 0.211,0.004 0.07,-0.028 0.121,-0.079 0.152,-0.149"
                 style="fill:#287ac8;fill-opacity:1;fill-rule:evenodd;stroke:none"
                 id="path80" /><path
                 d="M 15.574,6.914 C 15.613,6.844 15.621,6.773 15.598,6.699 15.578,6.625 15.535,6.57 15.469,6.531 15.398,6.496 15.328,6.488 15.254,6.512 15.18,6.531 15.125,6.574 15.09,6.641 c -0.035,0.066 -0.043,0.136 -0.024,0.211 0.024,0.074 0.067,0.132 0.133,0.168 0.067,0.039 0.137,0.046 0.211,0.023 0.074,-0.02 0.129,-0.063 0.164,-0.129"
                 style="fill:#287ac8;fill-opacity:1;fill-rule:evenodd;stroke:none"
                 id="path82" /><path
                 d="M 16.555,6.699 C 16.598,6.637 16.613,6.566 16.598,6.488 16.586,6.414 16.547,6.352 16.484,6.309 16.422,6.266 16.352,6.25 16.277,6.266 c -0.078,0.011 -0.136,0.05 -0.179,0.113 -0.043,0.062 -0.059,0.129 -0.043,0.207 0.011,0.074 0.05,0.137 0.113,0.18 0.062,0.047 0.129,0.058 0.207,0.047 0.074,-0.012 0.133,-0.051 0.18,-0.114"
                 style="fill:#287ac8;fill-opacity:1;fill-rule:evenodd;stroke:none"
                 id="path84" /><path
                 d="M 17.504,6.559 C 17.551,6.496 17.57,6.43 17.559,6.352 17.551,6.277 17.516,6.215 17.457,6.168 17.395,6.121 17.328,6.102 17.25,6.113 17.176,6.121 17.113,6.156 17.066,6.215 17.02,6.277 17.004,6.344 17.012,6.418 c 0.008,0.078 0.043,0.141 0.105,0.187 0.059,0.051 0.129,0.067 0.203,0.059 0.075,-0.008 0.137,-0.043 0.184,-0.105"
                 style="fill:#287ac8;fill-opacity:1;fill-rule:evenodd;stroke:none"
                 id="path86" /><path
                 d="M 18.508,6.5 C 18.563,6.441 18.586,6.375 18.586,6.297 18.586,6.223 18.559,6.156 18.5,6.105 18.445,6.051 18.379,6.023 18.305,6.027 c -0.078,0 -0.145,0.028 -0.196,0.082 -0.05,0.055 -0.078,0.121 -0.074,0.2 0,0.078 0.028,0.14 0.082,0.195 0.055,0.055 0.121,0.082 0.196,0.078 0.078,0 0.144,-0.027 0.195,-0.082"
                 style="fill:#287ac8;fill-opacity:1;fill-rule:evenodd;stroke:none"
                 id="path88" /><path
                 d="m 19.457,6.504 c 0.055,-0.055 0.082,-0.117 0.086,-0.195 0,-0.079 -0.027,-0.145 -0.078,-0.2 C 19.41,6.055 19.344,6.027 19.266,6.027 19.191,6.023 19.125,6.051 19.07,6.105 c -0.054,0.051 -0.082,0.118 -0.082,0.192 -0.004,0.078 0.024,0.144 0.078,0.203 0.051,0.055 0.118,0.082 0.192,0.082 0.078,0.004 0.144,-0.023 0.199,-0.078"
                 style="fill:#287ac8;fill-opacity:1;fill-rule:evenodd;stroke:none"
                 id="path90" /><path
                 d="M 20.457,6.594 C 20.516,6.551 20.551,6.488 20.559,6.41 20.57,6.332 20.551,6.266 20.504,6.207 20.457,6.145 20.395,6.109 20.316,6.102 20.242,6.09 20.172,6.109 20.113,6.156 20.055,6.203 20.02,6.266 20.012,6.34 20,6.418 20.02,6.488 20.066,6.551 c 0.047,0.058 0.11,0.094 0.184,0.101 0.078,0.012 0.145,-0.007 0.207,-0.058"
                 style="fill:#287ac8;fill-opacity:1;fill-rule:evenodd;stroke:none"
                 id="path92" /><path
                 d="M 21.402,6.75 C 21.469,6.703 21.504,6.645 21.52,6.566 21.531,6.492 21.516,6.422 21.473,6.359 21.43,6.297 21.367,6.262 21.293,6.246 21.219,6.234 21.148,6.25 21.086,6.293 c -0.063,0.043 -0.098,0.105 -0.113,0.18 -0.012,0.074 0.004,0.144 0.047,0.207 0.043,0.062 0.101,0.101 0.175,0.113 0.078,0.016 0.149,0 0.207,-0.043"
                 style="fill:#287ac8;fill-opacity:1;fill-rule:evenodd;stroke:none"
                 id="path94" /><path
                 d="M 22.379,7 C 22.445,6.961 22.492,6.906 22.512,6.828 22.531,6.754 22.523,6.688 22.488,6.621 22.449,6.555 22.395,6.508 22.32,6.488 22.246,6.465 22.176,6.477 22.109,6.512 22.043,6.551 22,6.605 21.98,6.68 c -0.023,0.074 -0.015,0.144 0.024,0.211 0.035,0.066 0.09,0.113 0.164,0.132 0.074,0.02 0.145,0.012 0.211,-0.023"
                 style="fill:#287ac8;fill-opacity:1;fill-rule:evenodd;stroke:none"
                 id="path96" /><path
                 d="m 23.289,7.293 c 0.07,-0.031 0.117,-0.086 0.141,-0.16 0.027,-0.07 0.023,-0.141 -0.012,-0.211 -0.035,-0.07 -0.086,-0.117 -0.16,-0.141 -0.07,-0.027 -0.141,-0.023 -0.211,0.012 -0.067,0.035 -0.113,0.086 -0.141,0.16 -0.023,0.07 -0.019,0.145 0.016,0.215 0.031,0.066 0.082,0.117 0.156,0.141 0.074,0.023 0.145,0.019 0.211,-0.016"
                 style="fill:#287ac8;fill-opacity:1;fill-rule:evenodd;stroke:none"
                 id="path98" /><path
                 d="M 24.199,7.688 C 24.273,7.66 24.324,7.609 24.355,7.539 24.387,7.469 24.387,7.398 24.359,7.324 24.332,7.254 24.285,7.203 24.215,7.172 24.145,7.141 24.074,7.141 24.004,7.168 23.93,7.195 23.883,7.242 23.848,7.313 c -0.032,0.074 -0.032,0.144 -0.004,0.214 0.023,0.071 0.074,0.125 0.144,0.157 0.071,0.027 0.141,0.031 0.211,0.004"
                 style="fill:#287ac8;fill-opacity:1;fill-rule:evenodd;stroke:none"
                 id="path100" /><path
                 d="M 25.078,8.137 C 25.152,8.113 25.211,8.07 25.246,8.004 25.285,7.934 25.293,7.867 25.27,7.793 25.25,7.719 25.207,7.664 25.141,7.625 25.07,7.59 25,7.582 24.93,7.602 c -0.075,0.019 -0.129,0.066 -0.168,0.132 -0.035,0.071 -0.047,0.141 -0.024,0.215 0.02,0.074 0.063,0.125 0.129,0.164 0.071,0.035 0.141,0.047 0.211,0.024"
                 style="fill:#287ac8;fill-opacity:1;fill-rule:evenodd;stroke:none"
                 id="path102" /><path
                 d="M 25.91,8.652 C 25.984,8.637 26.047,8.598 26.086,8.531 26.129,8.469 26.141,8.398 26.125,8.324 26.109,8.25 26.07,8.188 26.004,8.148 25.941,8.105 25.871,8.094 25.797,8.109 25.723,8.125 25.664,8.168 25.625,8.23 c -0.043,0.067 -0.059,0.137 -0.043,0.208 0.016,0.078 0.055,0.136 0.117,0.179 0.067,0.039 0.137,0.055 0.211,0.035"
                 style="fill:#287ac8;fill-opacity:1;fill-rule:evenodd;stroke:none"
                 id="path104" /><path
                 d="M 26.707,9.238 C 26.781,9.23 26.844,9.195 26.891,9.133 26.938,9.074 26.957,9.004 26.949,8.93 26.938,8.852 26.902,8.789 26.844,8.742 26.781,8.695 26.715,8.676 26.641,8.688 26.563,8.695 26.5,8.734 26.453,8.793 26.406,8.855 26.387,8.922 26.398,9 c 0.008,0.074 0.043,0.137 0.102,0.184 0.063,0.046 0.129,0.066 0.207,0.054"
                 style="fill:#287ac8;fill-opacity:1;fill-rule:evenodd;stroke:none"
                 id="path106" /><path
                 d="m 27.441,9.863 c 0.075,-0.004 0.137,-0.039 0.188,-0.097 0.051,-0.055 0.074,-0.125 0.07,-0.2 -0.008,-0.078 -0.039,-0.14 -0.097,-0.191 -0.059,-0.051 -0.125,-0.074 -0.2,-0.066 -0.074,0.004 -0.136,0.035 -0.191,0.093 -0.051,0.059 -0.07,0.125 -0.066,0.203 0.003,0.079 0.035,0.141 0.093,0.192 0.055,0.047 0.125,0.074 0.203,0.066"
                 style="fill:#287ac8;fill-opacity:1;fill-rule:evenodd;stroke:none"
                 id="path108" /><path
                 d="m 28.137,10.566 c 0.074,0.004 0.14,-0.023 0.195,-0.078 0.059,-0.054 0.086,-0.117 0.086,-0.191 0.004,-0.082 -0.023,-0.145 -0.078,-0.199 -0.055,-0.059 -0.117,-0.086 -0.195,-0.086 -0.075,0 -0.141,0.027 -0.196,0.078 -0.054,0.055 -0.086,0.121 -0.086,0.195 0,0.078 0.024,0.145 0.075,0.195 0.054,0.059 0.121,0.086 0.199,0.086"
                 style="fill:#287ac8;fill-opacity:1;fill-rule:evenodd;stroke:none"
                 id="path110" /><path
                 d="m 28.789,11.328 c 0.078,0.012 0.149,-0.008 0.207,-0.058 0.063,-0.047 0.098,-0.11 0.106,-0.184 0.007,-0.078 -0.012,-0.145 -0.059,-0.207 -0.047,-0.059 -0.109,-0.094 -0.184,-0.102 -0.074,-0.007 -0.14,0.008 -0.203,0.059 -0.062,0.047 -0.097,0.109 -0.105,0.184 -0.012,0.078 0.008,0.144 0.054,0.203 0.047,0.062 0.11,0.097 0.184,0.105"
                 style="fill:#287ac8;fill-opacity:1;fill-rule:evenodd;stroke:none"
                 id="path112" /><path
                 d="m 29.359,12.102 c 0.075,0.015 0.145,0 0.207,-0.043 0.063,-0.047 0.102,-0.106 0.118,-0.18 0.011,-0.078 -0.004,-0.149 -0.047,-0.207 -0.047,-0.067 -0.106,-0.102 -0.18,-0.117 -0.074,-0.012 -0.144,0.004 -0.207,0.047 -0.062,0.046 -0.102,0.105 -0.117,0.183 -0.012,0.074 0.004,0.141 0.047,0.207 0.043,0.059 0.105,0.098 0.179,0.11"
                 style="fill:#287ac8;fill-opacity:1;fill-rule:evenodd;stroke:none"
                 id="path114" /><path
                 d="m 29.879,12.953 c 0.074,0.016 0.144,0.008 0.211,-0.031 0.066,-0.039 0.109,-0.094 0.129,-0.168 0.019,-0.074 0.011,-0.145 -0.028,-0.211 -0.039,-0.066 -0.093,-0.109 -0.168,-0.129 -0.074,-0.019 -0.144,-0.012 -0.21,0.027 -0.067,0.039 -0.11,0.098 -0.129,0.172 -0.024,0.075 -0.012,0.145 0.023,0.207 0.039,0.067 0.098,0.114 0.172,0.133"
                 style="fill:#287ac8;fill-opacity:1;fill-rule:evenodd;stroke:none"
                 id="path116" /><path
                 d="m 30.32,13.801 c 0.075,0.023 0.145,0.015 0.215,-0.02 0.07,-0.035 0.113,-0.086 0.141,-0.16 0.023,-0.074 0.015,-0.144 -0.02,-0.211 -0.035,-0.07 -0.09,-0.117 -0.16,-0.14 -0.074,-0.024 -0.144,-0.016 -0.211,0.019 -0.07,0.035 -0.117,0.086 -0.14,0.16 -0.024,0.074 -0.02,0.145 0.015,0.211 0.035,0.07 0.09,0.117 0.16,0.141"
                 style="fill:#287ac8;fill-opacity:1;fill-rule:evenodd;stroke:none"
                 id="path118" /><path
                 d="m 30.699,14.715 c 0.071,0.031 0.141,0.031 0.215,0 0.07,-0.027 0.121,-0.074 0.152,-0.145 0.028,-0.074 0.028,-0.144 0,-0.215 -0.027,-0.07 -0.078,-0.121 -0.148,-0.152 -0.07,-0.027 -0.141,-0.027 -0.211,0 -0.074,0.031 -0.125,0.082 -0.156,0.149 -0.028,0.07 -0.028,0.144 -0.004,0.214 0.031,0.071 0.082,0.122 0.152,0.149"
                 style="fill:#287ac8;fill-opacity:1;fill-rule:evenodd;stroke:none"
                 id="path120" /><path
                 d="m 31.012,15.676 c 0.07,0.035 0.14,0.043 0.215,0.023 0.07,-0.019 0.128,-0.066 0.164,-0.133 0.039,-0.066 0.047,-0.136 0.023,-0.211 -0.019,-0.074 -0.062,-0.128 -0.129,-0.167 -0.066,-0.036 -0.137,-0.043 -0.211,-0.02 -0.074,0.02 -0.133,0.062 -0.168,0.133 -0.039,0.066 -0.047,0.133 -0.027,0.207 0.023,0.074 0.066,0.129 0.133,0.168"
                 style="fill:#287ac8;fill-opacity:1;fill-rule:evenodd;stroke:none"
                 id="path122" /><path
                 d="m 31.242,16.605 c 0.067,0.04 0.137,0.051 0.215,0.036 0.074,-0.02 0.129,-0.059 0.172,-0.125 0.039,-0.063 0.051,-0.137 0.035,-0.207 -0.019,-0.079 -0.059,-0.137 -0.125,-0.176 -0.062,-0.039 -0.133,-0.051 -0.207,-0.031 -0.078,0.015 -0.133,0.058 -0.176,0.121 -0.043,0.066 -0.051,0.136 -0.035,0.211 0.016,0.074 0.059,0.132 0.121,0.171"
                 style="fill:#287ac8;fill-opacity:1;fill-rule:evenodd;stroke:none"
                 id="path124" /><path
                 d="m 31.402,17.594 c 0.063,0.047 0.129,0.066 0.207,0.058 0.079,-0.011 0.137,-0.043 0.184,-0.105 0.051,-0.059 0.066,-0.129 0.059,-0.207 -0.008,-0.074 -0.043,-0.133 -0.106,-0.18 -0.058,-0.051 -0.129,-0.066 -0.203,-0.058 -0.078,0.007 -0.141,0.043 -0.188,0.105 -0.046,0.059 -0.066,0.129 -0.058,0.203 0.012,0.078 0.047,0.137 0.105,0.184"
                 style="fill:#287ac8;fill-opacity:1;fill-rule:evenodd;stroke:none"
                 id="path126" /><path
                 d="m 31.496,18.555 c 0.055,0.05 0.125,0.07 0.203,0.066 0.074,-0.008 0.141,-0.035 0.188,-0.094 0.051,-0.058 0.074,-0.125 0.066,-0.203 -0.004,-0.074 -0.035,-0.14 -0.094,-0.187 -0.054,-0.051 -0.125,-0.074 -0.199,-0.067 -0.078,0.004 -0.14,0.035 -0.191,0.094 -0.051,0.055 -0.074,0.125 -0.071,0.199 0.008,0.075 0.04,0.141 0.098,0.192"
                 style="fill:#287ac8;fill-opacity:1;fill-rule:evenodd;stroke:none"
                 id="path128" /><path
                 d="m 31.496,19.547 c 0.055,0.055 0.117,0.082 0.195,0.082 0.079,0.004 0.141,-0.024 0.2,-0.078 0.054,-0.051 0.082,-0.117 0.082,-0.196 0,-0.074 -0.024,-0.14 -0.078,-0.195 -0.051,-0.055 -0.118,-0.082 -0.196,-0.082 -0.074,-0.004 -0.14,0.024 -0.199,0.078 -0.055,0.051 -0.082,0.117 -0.086,0.192 0,0.078 0.027,0.144 0.082,0.199"
                 style="fill:#287ac8;fill-opacity:1;fill-rule:evenodd;stroke:none"
                 id="path130" /><path
                 d="m 31.434,20.5 c 0.05,0.059 0.113,0.09 0.191,0.094 0.078,0.008 0.145,-0.016 0.203,-0.067 0.055,-0.05 0.086,-0.113 0.094,-0.191 0.004,-0.074 -0.02,-0.141 -0.067,-0.199 -0.05,-0.059 -0.117,-0.086 -0.191,-0.094 -0.078,-0.008 -0.144,0.016 -0.203,0.066 -0.059,0.051 -0.09,0.114 -0.098,0.188 -0.004,0.078 0.02,0.144 0.071,0.203"
                 style="fill:#287ac8;fill-opacity:1;fill-rule:evenodd;stroke:none"
                 id="path132" /><path
                 d="m 31.289,21.496 c 0.043,0.063 0.106,0.102 0.18,0.117 0.078,0.012 0.144,-0.004 0.207,-0.047 0.066,-0.046 0.101,-0.105 0.117,-0.179 0.012,-0.078 -0.004,-0.145 -0.047,-0.207 -0.043,-0.063 -0.105,-0.098 -0.18,-0.114 -0.078,-0.011 -0.148,0 -0.207,0.047 -0.066,0.043 -0.105,0.102 -0.117,0.176 -0.012,0.078 0.004,0.145 0.047,0.207"
                 style="fill:#287ac8;fill-opacity:1;fill-rule:evenodd;stroke:none"
                 id="path134" /><path
                 d="m 31.082,22.438 c 0.039,0.062 0.098,0.105 0.172,0.125 0.078,0.015 0.148,0.003 0.211,-0.036 0.066,-0.043 0.105,-0.101 0.125,-0.175 0.015,-0.075 0.004,-0.145 -0.035,-0.207 -0.043,-0.067 -0.098,-0.106 -0.176,-0.125 -0.074,-0.016 -0.145,-0.004 -0.211,0.035 -0.063,0.039 -0.105,0.097 -0.121,0.172 -0.02,0.074 -0.008,0.144 0.035,0.211"
                 style="fill:#287ac8;fill-opacity:1;fill-rule:evenodd;stroke:none"
                 id="path136" /><path
                 d="m 30.781,23.395 c 0.032,0.066 0.086,0.113 0.16,0.14 0.075,0.024 0.141,0.02 0.211,-0.012 0.071,-0.035 0.118,-0.089 0.141,-0.164 0.023,-0.07 0.02,-0.14 -0.012,-0.211 -0.035,-0.066 -0.086,-0.113 -0.16,-0.136 -0.074,-0.028 -0.144,-0.024 -0.215,0.011 -0.066,0.032 -0.117,0.086 -0.14,0.157 -0.024,0.074 -0.02,0.144 0.015,0.215"
                 style="fill:#287ac8;fill-opacity:1;fill-rule:evenodd;stroke:none"
                 id="path138" /><path
                 d="m 30.41,24.313 c 0.028,0.07 0.078,0.121 0.149,0.152 0.07,0.031 0.14,0.035 0.211,0.008 0.07,-0.028 0.125,-0.078 0.156,-0.149 0.031,-0.07 0.031,-0.14 0.004,-0.211 -0.028,-0.07 -0.075,-0.121 -0.149,-0.152 -0.07,-0.031 -0.14,-0.035 -0.211,-0.008 -0.074,0.027 -0.125,0.074 -0.156,0.145 -0.031,0.07 -0.031,0.14 -0.004,0.215"
                 style="fill:#287ac8;fill-opacity:1;fill-rule:evenodd;stroke:none"
                 id="path140" /><path
                 d="m 29.992,25.176 c 0.024,0.074 0.071,0.125 0.141,0.16 0.066,0.035 0.137,0.043 0.211,0.019 0.07,-0.023 0.125,-0.07 0.16,-0.14 0.035,-0.067 0.039,-0.137 0.016,-0.211 -0.024,-0.07 -0.067,-0.125 -0.137,-0.16 -0.07,-0.035 -0.141,-0.043 -0.215,-0.016 -0.07,0.024 -0.125,0.067 -0.16,0.133 -0.035,0.07 -0.039,0.141 -0.016,0.215"
                 style="fill:#287ac8;fill-opacity:1;fill-rule:evenodd;stroke:none"
                 id="path142" /><path
                 d="m 29.477,26.039 c 0.015,0.074 0.054,0.133 0.121,0.176 0.062,0.043 0.132,0.055 0.207,0.039 0.078,-0.016 0.133,-0.059 0.175,-0.121 0.043,-0.063 0.055,-0.133 0.04,-0.207 -0.016,-0.074 -0.055,-0.133 -0.122,-0.176 -0.066,-0.039 -0.132,-0.055 -0.21,-0.039 -0.075,0.016 -0.133,0.055 -0.172,0.121 -0.043,0.063 -0.059,0.133 -0.039,0.207"
                 style="fill:#287ac8;fill-opacity:1;fill-rule:evenodd;stroke:none"
                 id="path144" /><path
                 d="m 28.938,26.82 c 0.015,0.075 0.054,0.133 0.117,0.18 0.062,0.043 0.133,0.059 0.207,0.043 0.074,-0.012 0.133,-0.051 0.179,-0.113 0.043,-0.063 0.059,-0.133 0.047,-0.207 -0.015,-0.075 -0.054,-0.133 -0.117,-0.18 -0.062,-0.043 -0.133,-0.059 -0.207,-0.047 -0.078,0.012 -0.137,0.051 -0.18,0.113 -0.043,0.063 -0.058,0.133 -0.046,0.211"
                 style="fill:#287ac8;fill-opacity:1;fill-rule:evenodd;stroke:none"
                 id="path146" /><path
                 d="m 28.297,27.59 c 0.004,0.078 0.035,0.14 0.094,0.191 0.058,0.051 0.125,0.074 0.203,0.067 0.074,-0.004 0.136,-0.039 0.187,-0.094 0.051,-0.059 0.074,-0.125 0.067,-0.199 -0.004,-0.078 -0.035,-0.141 -0.094,-0.192 -0.059,-0.05 -0.125,-0.074 -0.203,-0.07 -0.078,0.004 -0.141,0.035 -0.188,0.094 -0.05,0.058 -0.074,0.125 -0.066,0.203"
                 style="fill:#287ac8;fill-opacity:1;fill-rule:evenodd;stroke:none"
                 id="path148" /><path
                 d="m 27.605,28.301 c 0,0.078 0.028,0.144 0.079,0.199 0.054,0.055 0.121,0.086 0.195,0.086 0.078,0 0.144,-0.023 0.199,-0.078 0.055,-0.055 0.082,-0.121 0.086,-0.195 0,-0.075 -0.027,-0.141 -0.078,-0.196 -0.055,-0.058 -0.121,-0.086 -0.199,-0.086 -0.074,-0.004 -0.141,0.024 -0.196,0.074 -0.054,0.055 -0.082,0.122 -0.086,0.196"
                 style="fill:#287ac8;fill-opacity:1;fill-rule:evenodd;stroke:none"
                 id="path150" /><path
                 d="m 26.895,28.949 c -0.004,0.078 0.015,0.145 0.066,0.203 0.051,0.059 0.113,0.09 0.191,0.094 0.078,0.008 0.145,-0.016 0.203,-0.066 0.055,-0.051 0.086,-0.114 0.094,-0.188 0.004,-0.078 -0.019,-0.144 -0.07,-0.203 -0.051,-0.059 -0.113,-0.09 -0.188,-0.094 -0.078,-0.007 -0.144,0.016 -0.203,0.063 -0.058,0.051 -0.09,0.117 -0.093,0.191"
                 style="fill:#287ac8;fill-opacity:1;fill-rule:evenodd;stroke:none"
                 id="path152" /><path
                 d="m 26.094,29.555 c -0.012,0.074 0.004,0.144 0.047,0.207 0.043,0.062 0.105,0.101 0.179,0.117 0.075,0.012 0.145,-0.004 0.207,-0.051 0.063,-0.043 0.102,-0.101 0.114,-0.176 0.015,-0.074 -0.004,-0.144 -0.047,-0.207 -0.043,-0.066 -0.106,-0.101 -0.18,-0.117 -0.074,-0.012 -0.144,0 -0.207,0.047 -0.062,0.043 -0.102,0.102 -0.113,0.18"
                 style="fill:#287ac8;fill-opacity:1;fill-rule:evenodd;stroke:none"
                 id="path154" /><path
                 d="m 25.301,30.074 c -0.016,0.074 -0.004,0.145 0.039,0.211 0.043,0.063 0.098,0.106 0.176,0.121 0.074,0.016 0.144,0 0.207,-0.043 0.066,-0.039 0.105,-0.097 0.121,-0.172 0.015,-0.074 0,-0.144 -0.039,-0.207 -0.043,-0.066 -0.102,-0.105 -0.176,-0.125 -0.078,-0.015 -0.145,-0.004 -0.211,0.039 -0.063,0.043 -0.102,0.102 -0.117,0.176"
                 style="fill:#287ac8;fill-opacity:1;fill-rule:evenodd;stroke:none"
                 id="path156" /><path
                 d="m 24.418,30.551 c -0.023,0.07 -0.02,0.14 0.016,0.211 0.035,0.07 0.089,0.113 0.16,0.136 0.074,0.028 0.144,0.02 0.215,-0.015 0.066,-0.035 0.113,-0.09 0.136,-0.16 0.024,-0.075 0.016,-0.145 -0.019,-0.211 -0.031,-0.071 -0.09,-0.117 -0.16,-0.141 -0.075,-0.023 -0.145,-0.019 -0.211,0.016 -0.071,0.035 -0.114,0.09 -0.137,0.164"
                 style="fill:#287ac8;fill-opacity:1;fill-rule:evenodd;stroke:none"
                 id="path158" /><path
                 d="m 23.512,30.949 c -0.032,0.071 -0.032,0.141 -0.004,0.211 0.031,0.074 0.082,0.125 0.152,0.153 0.067,0.031 0.141,0.031 0.211,0.003 0.07,-0.031 0.121,-0.078 0.149,-0.152 0.031,-0.066 0.031,-0.141 0.003,-0.211 -0.031,-0.07 -0.082,-0.121 -0.148,-0.152 -0.074,-0.031 -0.145,-0.031 -0.211,-0.004 -0.074,0.031 -0.125,0.082 -0.152,0.152"
                 style="fill:#287ac8;fill-opacity:1;fill-rule:evenodd;stroke:none"
                 id="path160" /><path
                 d="m 22.605,31.273 c -0.031,0.071 -0.039,0.141 -0.011,0.215 0.023,0.071 0.07,0.125 0.14,0.157 0.067,0.035 0.141,0.039 0.215,0.011 0.071,-0.023 0.121,-0.07 0.156,-0.136 0.032,-0.071 0.036,-0.141 0.012,-0.215 -0.027,-0.071 -0.074,-0.125 -0.14,-0.16 -0.071,-0.036 -0.141,-0.04 -0.211,-0.012 -0.075,0.023 -0.129,0.07 -0.161,0.14"
                 style="fill:#287ac8;fill-opacity:1;fill-rule:evenodd;stroke:none"
                 id="path162" /><path
                 d="m 21.633,31.527 c -0.043,0.067 -0.051,0.137 -0.035,0.211 0.015,0.078 0.058,0.133 0.121,0.176 0.066,0.039 0.136,0.051 0.211,0.031 0.074,-0.015 0.133,-0.054 0.172,-0.121 0.043,-0.062 0.05,-0.133 0.035,-0.211 -0.016,-0.074 -0.059,-0.133 -0.121,-0.172 -0.067,-0.043 -0.137,-0.054 -0.211,-0.039 -0.075,0.02 -0.133,0.059 -0.172,0.125"
                 style="fill:#287ac8;fill-opacity:1;fill-rule:evenodd;stroke:none"
                 id="path164" /><path
                 d="m 20.691,31.707 c -0.043,0.066 -0.058,0.137 -0.043,0.211 0.012,0.074 0.051,0.137 0.114,0.18 0.062,0.043 0.133,0.058 0.207,0.047 0.074,-0.016 0.136,-0.051 0.179,-0.118 0.043,-0.058 0.055,-0.129 0.043,-0.207 -0.015,-0.074 -0.05,-0.132 -0.113,-0.179 -0.062,-0.043 -0.133,-0.059 -0.207,-0.047 -0.074,0.011 -0.137,0.051 -0.18,0.113"
                 style="fill:#287ac8;fill-opacity:1;fill-rule:evenodd;stroke:none"
                 id="path166" /><path
                 d="m 19.688,31.816 c -0.047,0.059 -0.071,0.125 -0.067,0.204 0.004,0.078 0.039,0.14 0.094,0.191 0.058,0.051 0.129,0.07 0.203,0.066 0.078,-0.007 0.141,-0.039 0.187,-0.093 0.051,-0.059 0.075,-0.125 0.067,-0.204 -0.004,-0.078 -0.035,-0.14 -0.094,-0.191 -0.055,-0.051 -0.125,-0.074 -0.199,-0.07 -0.074,0.008 -0.141,0.039 -0.191,0.097"
                 style="fill:#287ac8;fill-opacity:1;fill-rule:evenodd;stroke:none"
                 id="path168" /><path
                 d="m 18.73,31.848 c -0.054,0.054 -0.078,0.121 -0.078,0.199 0,0.074 0.028,0.141 0.082,0.195 0.059,0.051 0.125,0.078 0.2,0.074 0.078,0 0.14,-0.027 0.195,-0.082 0.051,-0.054 0.078,-0.121 0.074,-0.199 0,-0.078 -0.027,-0.144 -0.082,-0.195 -0.055,-0.055 -0.121,-0.078 -0.195,-0.078 -0.078,0 -0.145,0.027 -0.196,0.086"
                 style="fill:#287ac8;fill-opacity:1;fill-rule:evenodd;stroke:none"
                 id="path170" /><path
                 d="m 17.742,31.793 c -0.054,0.051 -0.09,0.113 -0.094,0.191 -0.007,0.079 0.016,0.145 0.067,0.204 0.051,0.054 0.113,0.089 0.191,0.093 0.078,0.004 0.145,-0.019 0.199,-0.066 0.059,-0.051 0.09,-0.117 0.094,-0.192 0.008,-0.078 -0.015,-0.144 -0.066,-0.203 -0.051,-0.058 -0.113,-0.09 -0.188,-0.097 -0.078,-0.004 -0.144,0.019 -0.203,0.07"
                 style="fill:#287ac8;fill-opacity:1;fill-rule:evenodd;stroke:none"
                 id="path172" /><path
                 d="m 16.785,31.684 c -0.062,0.05 -0.097,0.113 -0.105,0.187 -0.008,0.078 0.008,0.145 0.058,0.207 0.047,0.059 0.11,0.094 0.184,0.102 0.078,0.011 0.144,-0.008 0.203,-0.055 0.059,-0.047 0.094,-0.109 0.105,-0.184 0.008,-0.078 -0.011,-0.148 -0.058,-0.207 -0.047,-0.062 -0.106,-0.097 -0.184,-0.105 -0.074,-0.012 -0.144,0.008 -0.203,0.055"
                 style="fill:#287ac8;fill-opacity:1;fill-rule:evenodd;stroke:none"
                 id="path174" /><path
                 d="m 15.801,31.477 c -0.067,0.043 -0.106,0.101 -0.125,0.175 -0.016,0.075 -0.004,0.145 0.035,0.211 0.043,0.063 0.102,0.106 0.176,0.121 0.074,0.02 0.144,0.004 0.207,-0.035 0.062,-0.039 0.105,-0.097 0.125,-0.172 0.015,-0.074 0.004,-0.144 -0.035,-0.211 -0.043,-0.066 -0.098,-0.105 -0.172,-0.125 -0.074,-0.015 -0.145,-0.003 -0.211,0.036"
                 style="fill:#287ac8;fill-opacity:1;fill-rule:evenodd;stroke:none"
                 id="path176" /><path
                 d="m 14.836,31.199 c -0.066,0.035 -0.113,0.09 -0.141,0.164 -0.023,0.071 -0.019,0.141 0.016,0.211 0.031,0.071 0.086,0.117 0.16,0.141 0.07,0.023 0.141,0.019 0.211,-0.012 0.066,-0.035 0.113,-0.09 0.137,-0.16 0.027,-0.074 0.023,-0.145 -0.012,-0.215 -0.031,-0.07 -0.086,-0.117 -0.156,-0.14 -0.074,-0.028 -0.145,-0.02 -0.215,0.011"
                 style="fill:#287ac8;fill-opacity:1;fill-rule:evenodd;stroke:none"
                 id="path178" /><path
                 d="m 13.938,30.867 c -0.071,0.031 -0.122,0.082 -0.149,0.153 -0.031,0.07 -0.031,0.144 0,0.214 0.031,0.071 0.082,0.118 0.152,0.149 0.071,0.027 0.141,0.027 0.211,-0.004 0.071,-0.027 0.121,-0.078 0.149,-0.149 0.027,-0.074 0.027,-0.144 0,-0.214 -0.031,-0.075 -0.078,-0.121 -0.153,-0.153 -0.07,-0.027 -0.14,-0.027 -0.21,0.004"
                 style="fill:#287ac8;fill-opacity:1;fill-rule:evenodd;stroke:none"
                 id="path180" /><path
                 d="m 13.039,30.445 c -0.07,0.024 -0.125,0.071 -0.16,0.141 -0.035,0.07 -0.039,0.137 -0.016,0.211 0.024,0.074 0.071,0.129 0.137,0.164 0.07,0.035 0.141,0.039 0.211,0.016 0.074,-0.024 0.125,-0.071 0.16,-0.141 0.035,-0.066 0.043,-0.137 0.02,-0.211 -0.024,-0.074 -0.071,-0.129 -0.137,-0.164 -0.07,-0.035 -0.141,-0.039 -0.215,-0.016"
                 style="fill:#287ac8;fill-opacity:1;fill-rule:evenodd;stroke:none"
                 id="path182" /><path
                 d="m 12.184,29.969 c -0.075,0.019 -0.133,0.062 -0.172,0.129 -0.039,0.066 -0.051,0.136 -0.032,0.211 0.02,0.074 0.063,0.132 0.129,0.171 0.067,0.04 0.137,0.051 0.207,0.032 0.075,-0.02 0.133,-0.063 0.172,-0.129 0.039,-0.067 0.051,-0.137 0.032,-0.211 C 12.5,30.098 12.461,30.043 12.395,30 12.328,29.961 12.258,29.953 12.184,29.969"
                 style="fill:#287ac8;fill-opacity:1;fill-rule:evenodd;stroke:none"
                 id="path184" /><path
                 d="m 11.379,29.426 c -0.074,0.012 -0.137,0.051 -0.18,0.113 -0.043,0.063 -0.058,0.133 -0.047,0.207 0.016,0.078 0.055,0.137 0.118,0.18 0.062,0.047 0.128,0.062 0.203,0.047 0.078,-0.012 0.136,-0.051 0.179,-0.118 0.047,-0.062 0.063,-0.128 0.047,-0.207 -0.011,-0.074 -0.051,-0.136 -0.113,-0.179 -0.063,-0.043 -0.133,-0.059 -0.207,-0.043"
                 style="fill:#287ac8;fill-opacity:1;fill-rule:evenodd;stroke:none"
                 id="path186" /><path
                 d="m 10.594,28.801 c -0.078,0.004 -0.141,0.035 -0.192,0.097 -0.05,0.055 -0.074,0.125 -0.066,0.2 0.004,0.078 0.035,0.14 0.094,0.191 0.058,0.051 0.125,0.07 0.199,0.066 0.078,-0.007 0.141,-0.039 0.191,-0.097 0.051,-0.055 0.075,-0.125 0.071,-0.199 -0.008,-0.079 -0.039,-0.141 -0.094,-0.192 -0.059,-0.051 -0.129,-0.074 -0.203,-0.066"
                 style="fill:#287ac8;fill-opacity:1;fill-rule:evenodd;stroke:none"
                 id="path188" /><path
                 d="m 9.879,28.152 c -0.078,0 -0.141,0.032 -0.195,0.086 -0.055,0.055 -0.079,0.121 -0.079,0.196 0,0.078 0.028,0.144 0.086,0.195 0.055,0.055 0.122,0.082 0.196,0.078 0.078,0 0.14,-0.031 0.195,-0.086 0.055,-0.055 0.078,-0.121 0.078,-0.199 0,-0.074 -0.027,-0.141 -0.082,-0.192 -0.055,-0.054 -0.121,-0.082 -0.199,-0.078"
                 style="fill:#287ac8;fill-opacity:1;fill-rule:evenodd;stroke:none"
                 id="path190" /><path
                 d="m 9.207,27.426 c -0.078,-0.008 -0.144,0.015 -0.203,0.066 -0.059,0.051 -0.09,0.113 -0.094,0.192 -0.004,0.074 0.016,0.144 0.067,0.199 0.05,0.058 0.113,0.09 0.191,0.094 0.074,0.007 0.141,-0.016 0.199,-0.067 0.059,-0.051 0.09,-0.113 0.098,-0.191 C 9.469,27.641 9.449,27.578 9.398,27.52 9.348,27.461 9.285,27.43 9.207,27.426"
                 style="fill:#287ac8;fill-opacity:1;fill-rule:evenodd;stroke:none"
                 id="path192" /><path
                 d="m 8.605,26.68 c -0.078,-0.012 -0.144,0.008 -0.207,0.054 -0.058,0.051 -0.093,0.11 -0.105,0.188 -0.008,0.074 0.012,0.144 0.059,0.203 0.046,0.063 0.109,0.098 0.183,0.105 0.074,0.008 0.145,-0.011 0.203,-0.058 0.063,-0.047 0.098,-0.109 0.11,-0.184 C 8.855,26.91 8.836,26.844 8.793,26.781 8.742,26.723 8.68,26.688 8.605,26.68"
                 style="fill:#287ac8;fill-opacity:1;fill-rule:evenodd;stroke:none"
                 id="path194" /><path
                 d="M 8.055,25.852 C 7.98,25.836 7.91,25.848 7.844,25.891 c -0.063,0.043 -0.106,0.101 -0.121,0.175 -0.016,0.075 0,0.145 0.039,0.211 0.043,0.063 0.101,0.102 0.176,0.118 0.074,0.015 0.144,0.003 0.207,-0.04 C 8.211,26.313 8.25,26.254 8.27,26.18 8.285,26.105 8.273,26.035 8.23,25.973 8.188,25.906 8.129,25.867 8.055,25.852"
                 style="fill:#287ac8;fill-opacity:1;fill-rule:evenodd;stroke:none"
                 id="path196" /><path
                 d="M 7.559,24.98 C 7.484,24.957 7.414,24.965 7.344,24.996 7.277,25.035 7.23,25.086 7.207,25.16 c -0.023,0.07 -0.016,0.145 0.02,0.211 0.035,0.07 0.086,0.113 0.16,0.137 0.07,0.023 0.14,0.019 0.211,-0.016 0.07,-0.035 0.113,-0.09 0.14,-0.164 0.024,-0.07 0.02,-0.14 -0.015,-0.211 C 7.688,25.051 7.633,25.004 7.559,24.98"
                 style="fill:#287ac8;fill-opacity:1;fill-rule:evenodd;stroke:none"
                 id="path198" /><path
                 d="m 7.145,24.109 c -0.071,-0.027 -0.141,-0.023 -0.211,0.008 -0.071,0.031 -0.121,0.082 -0.149,0.156 -0.027,0.071 -0.023,0.141 0.008,0.211 0.031,0.071 0.082,0.118 0.152,0.145 0.071,0.027 0.141,0.027 0.211,-0.008 C 7.227,24.59 7.277,24.539 7.305,24.469 7.332,24.398 7.332,24.328 7.301,24.258 7.27,24.188 7.219,24.137 7.145,24.109"
                 style="fill:#287ac8;fill-opacity:1;fill-rule:evenodd;stroke:none"
                 id="path200" /><path
                 d="M 6.801,23.184 C 6.73,23.148 6.66,23.145 6.586,23.172 c -0.07,0.023 -0.125,0.07 -0.156,0.141 -0.035,0.07 -0.039,0.14 -0.016,0.21 0.027,0.075 0.074,0.125 0.141,0.161 0.07,0.031 0.14,0.035 0.215,0.011 0.07,-0.027 0.125,-0.074 0.16,-0.14 0.035,-0.071 0.039,-0.141 0.011,-0.211 -0.023,-0.074 -0.07,-0.125 -0.14,-0.16"
                 style="fill:#287ac8;fill-opacity:1;fill-rule:evenodd;stroke:none"
                 id="path202" /><path
                 d="M 6.527,22.258 C 6.461,22.223 6.391,22.215 6.313,22.234 c -0.075,0.024 -0.129,0.067 -0.165,0.133 -0.039,0.067 -0.046,0.141 -0.023,0.215 0.02,0.07 0.066,0.129 0.133,0.164 0.066,0.035 0.137,0.043 0.211,0.024 C 6.543,22.746 6.598,22.703 6.637,22.637 6.672,22.57 6.68,22.5 6.66,22.426 6.641,22.352 6.594,22.297 6.527,22.258"
                 style="fill:#287ac8;fill-opacity:1;fill-rule:evenodd;stroke:none"
                 id="path204" /><path
                 d="M 6.328,21.277 C 6.266,21.234 6.195,21.219 6.121,21.234 6.043,21.246 5.984,21.285 5.941,21.348 5.895,21.41 5.883,21.48 5.895,21.555 c 0.011,0.078 0.05,0.136 0.113,0.179 0.062,0.043 0.133,0.059 0.207,0.043 0.078,-0.011 0.137,-0.05 0.18,-0.113 0.046,-0.062 0.062,-0.129 0.046,-0.207 -0.011,-0.074 -0.05,-0.133 -0.113,-0.18"
                 style="fill:#287ac8;fill-opacity:1;fill-rule:evenodd;stroke:none"
                 id="path206" /><path
                 d="M 6.195,20.324 C 6.137,20.281 6.066,20.262 5.992,20.27 c -0.078,0.011 -0.14,0.043 -0.187,0.105 -0.047,0.059 -0.067,0.129 -0.055,0.203 0.008,0.078 0.043,0.141 0.102,0.188 0.062,0.043 0.128,0.062 0.207,0.054 0.078,-0.011 0.136,-0.047 0.183,-0.105 0.051,-0.063 0.071,-0.129 0.063,-0.203 -0.012,-0.078 -0.047,-0.141 -0.11,-0.188"
                 style="fill:#287ac8;fill-opacity:1;fill-rule:evenodd;stroke:none"
                 id="path208" /><path
                 d="M 6.152,19.32 C 6.098,19.27 6.031,19.242 5.953,19.242 c -0.074,0.004 -0.14,0.031 -0.195,0.086 -0.051,0.055 -0.078,0.121 -0.074,0.199 0,0.075 0.027,0.141 0.082,0.192 0.054,0.054 0.121,0.078 0.199,0.078 0.074,-0.004 0.14,-0.031 0.195,-0.086 0.055,-0.055 0.078,-0.117 0.078,-0.195 0,-0.078 -0.027,-0.141 -0.086,-0.196"
                 style="fill:#287ac8;fill-opacity:1;fill-rule:evenodd;stroke:none"
                 id="path210" /><path
                 d="m 18.68,3.094 c 0,0.195 0.16,0.355 0.355,0.355 0.195,0 0.356,-0.16 0.356,-0.355 0,-0.196 -0.161,-0.352 -0.356,-0.352 -0.195,0 -0.355,0.156 -0.355,0.352"
                 style="fill:#287ac8;fill-opacity:1;fill-rule:evenodd;stroke:none"
                 id="path212" /><path
                 d="m 31.086,28.668 c 0,0.195 0.16,0.352 0.355,0.352 0.196,0 0.352,-0.157 0.352,-0.352 0,-0.195 -0.156,-0.355 -0.352,-0.355 -0.195,0 -0.355,0.16 -0.355,0.355"
                 style="fill:#287ac8;fill-opacity:1;fill-rule:evenodd;stroke:none"
                 id="path214" /><path
                 d="m 5.574,28.668 c 0,0.195 0.16,0.352 0.356,0.352 0.195,0 0.355,-0.157 0.355,-0.352 0,-0.195 -0.16,-0.355 -0.355,-0.355 -0.196,0 -0.356,0.16 -0.356,0.355"
                 style="fill:#287ac8;fill-opacity:1;fill-rule:evenodd;stroke:none"
                 id="path216" /><path
                 d="M 22.207,2.699 C 22.223,2.684 22.262,2.652 22.266,2.621 22.277,2.57 22.203,2.566 22.168,2.559 L 21.496,2.453 C 21.398,2.441 21.344,2.449 21.328,2.555 21.313,2.641 21.246,2.691 21.152,2.68 21.035,2.66 21,2.57 21.016,2.469 21.035,2.359 21.117,2.25 21.211,2.191 21.316,2.129 21.422,2.121 21.539,2.137 l 0.672,0.109 c 0.102,0.012 0.176,0.024 0.254,0.098 0.098,0.086 0.137,0.203 0.117,0.328 -0.016,0.109 -0.062,0.168 -0.144,0.242 l -1.305,1.223 c -0.016,0.015 -0.067,0.058 -0.07,0.082 -0.008,0.047 0.074,0.051 0.097,0.054 l 0.688,0.11 C 21.934,4.398 21.988,4.391 22,4.297 22.016,4.211 22.086,4.145 22.176,4.16 22.285,4.176 22.328,4.277 22.313,4.375 22.297,4.488 22.215,4.59 22.117,4.648 22.012,4.711 21.902,4.715 21.785,4.695 L 21.086,4.586 C 20.871,4.551 20.707,4.402 20.746,4.164 20.766,4.059 20.824,3.992 20.898,3.922 l 1.309,-1.223 z"
                 style="fill:#287ac8;fill-opacity:1;fill-rule:evenodd;stroke:none"
                 id="path218" /><path
                 d="M 24.801,3.313 24.367,3.137 C 24.289,3.105 24.234,3.035 24.277,2.93 24.32,2.82 24.41,2.809 24.484,2.84 l 1.172,0.473 c 0.074,0.031 0.129,0.101 0.086,0.207 -0.043,0.109 -0.129,0.121 -0.207,0.089 L 25.098,3.434 24.406,5.148 24.84,5.324 c 0.078,0.031 0.133,0.102 0.09,0.207 -0.043,0.106 -0.133,0.117 -0.207,0.086 L 23.555,5.148 C 23.477,5.117 23.422,5.047 23.465,4.941 23.508,4.832 23.594,4.82 23.672,4.852 l 0.437,0.175 0.692,-1.714 z"
                 style="fill:#287ac8;fill-opacity:1;fill-rule:evenodd;stroke:none"
                 id="path220" /><path
                 d="M 28.059,5.121 C 28.078,5.113 28.129,5.102 28.145,5.078 28.172,5.031 28.105,5 28.078,4.98 L 27.508,4.609 C 27.426,4.559 27.371,4.539 27.313,4.633 27.266,4.707 27.184,4.727 27.102,4.676 27.004,4.613 27.008,4.516 27.063,4.43 27.125,4.332 27.246,4.273 27.355,4.254 27.477,4.238 27.574,4.273 27.676,4.34 l 0.57,0.367 c 0.086,0.059 0.149,0.098 0.192,0.195 0.05,0.118 0.046,0.243 -0.024,0.348 -0.062,0.094 -0.129,0.129 -0.23,0.164 L 26.492,6 c -0.019,0.008 -0.082,0.023 -0.097,0.047 -0.028,0.039 0.046,0.074 0.066,0.09 l 0.582,0.379 c 0.074,0.047 0.125,0.062 0.176,-0.016 0.051,-0.074 0.14,-0.105 0.219,-0.055 0.093,0.059 0.089,0.164 0.035,0.254 -0.059,0.094 -0.176,0.153 -0.289,0.164 -0.121,0.016 -0.223,-0.019 -0.325,-0.09 L 26.27,6.391 C 26.082,6.273 25.996,6.07 26.129,5.867 c 0.059,-0.09 0.137,-0.125 0.238,-0.16 l 1.692,-0.586 z"
                 style="fill:#287ac8;fill-opacity:1;fill-rule:evenodd;stroke:none"
                 id="path222" /><path
                 d="m 28.758,7.516 1.906,-0.914 0.32,0.277 -1.531,1.758 C 29.387,8.715 29.316,8.727 29.23,8.648 29.145,8.574 29.148,8.504 29.215,8.426 l 1.152,-1.328 -1.89,0.898 -0.321,-0.277 1.532,-1.758 c 0.062,-0.074 0.136,-0.09 0.222,-0.016 0.086,0.075 0.082,0.149 0.016,0.227 l -1.168,1.344 z"
                 style="fill:#287ac8;fill-opacity:1;fill-rule:evenodd;stroke:none"
                 id="path224" /><path
                 d="M 31.148,10.434 31.75,9.965 31.461,9.594 C 31.41,9.531 31.398,9.441 31.488,9.371 c 0.09,-0.07 0.176,-0.039 0.227,0.027 L 32.004,9.77 32.605,9.297 31.926,8.43 c -0.051,-0.063 -0.059,-0.153 0.031,-0.223 0.09,-0.07 0.172,-0.039 0.223,0.027 l 0.875,1.121 -1.961,1.532 -0.875,-1.121 C 30.168,9.699 30.156,9.613 30.246,9.543 30.336,9.469 30.418,9.504 30.469,9.57 l 0.679,0.864 z"
                 style="fill:#287ac8;fill-opacity:1;fill-rule:evenodd;stroke:none"
                 id="path226" /><path
                 d="m 32.324,11.949 2.114,-0.097 0.183,0.378 -2.09,1.02 c -0.093,0.047 -0.164,0.031 -0.218,-0.07 -0.047,-0.106 -0.016,-0.172 0.074,-0.215 l 1.582,-0.774 -2.09,0.09 -0.188,-0.379 2.094,-1.019 c 0.094,-0.047 0.164,-0.031 0.215,0.074 0.051,0.102 0.02,0.168 -0.074,0.211 l -1.602,0.781 z"
                 style="fill:#287ac8;fill-opacity:1;fill-rule:evenodd;stroke:none"
                 id="path228" /><path
                 d="m 33.797,14.676 0.137,0.484 0.765,-0.48 -0.902,-0.004 z m 1.516,-0.004 -1.907,1.195 c -0.07,0.047 -0.172,-0.015 -0.195,-0.097 -0.027,-0.098 0.035,-0.168 0.102,-0.211 l 0.335,-0.227 -0.187,-0.652 -0.398,-0.008 c -0.083,0 -0.176,-0.027 -0.204,-0.125 -0.023,-0.086 0.032,-0.192 0.114,-0.192 l 2.25,0 c 0.086,-0.003 0.172,0.012 0.203,0.114 0.027,0.097 -0.035,0.152 -0.113,0.203"
                 style="fill:#287ac8;fill-opacity:1;fill-rule:evenodd;stroke:none"
                 id="path230" /><path
                 d="m 35.965,16.953 0.074,1.418 c 0.004,0.086 -0.035,0.164 -0.152,0.168 -0.114,0.008 -0.164,-0.066 -0.168,-0.148 l -0.051,-0.985 -1.906,1.246 -0.199,0.012 -0.075,-1.418 c -0.004,-0.082 0.035,-0.164 0.153,-0.168 0.113,-0.008 0.164,0.067 0.168,0.149 l 0.05,0.988 1.899,-1.25 0.207,-0.012 z"
                 style="fill:#287ac8;fill-opacity:1;fill-rule:evenodd;stroke:none"
                 id="path232" /><path
                 d="m 33.535,20.293 c 0.008,-0.156 0.059,-0.277 0.188,-0.383 0.129,-0.097 0.242,-0.105 0.39,-0.094 l 1.782,0.125 c 0.101,0.008 0.156,0.055 0.148,0.168 -0.008,0.118 -0.07,0.157 -0.172,0.149 L 34.09,20.137 c -0.18,-0.016 -0.227,0.035 -0.238,0.179 l -0.036,0.543 c -0.011,0.145 0.032,0.204 0.207,0.215 l 1.782,0.125 c 0.101,0.004 0.156,0.055 0.148,0.168 -0.008,0.117 -0.066,0.156 -0.172,0.153 L 34,21.395 c -0.145,-0.012 -0.258,-0.036 -0.367,-0.149 -0.117,-0.121 -0.149,-0.25 -0.137,-0.41 l 0.039,-0.543 z"
                 style="fill:#287ac8;fill-opacity:1;fill-rule:evenodd;stroke:none"
                 id="path234" /><path
                 d="m 33.906,23.273 -0.136,0.481 0.902,0 -0.766,-0.481 z m 1.492,0.684 c -0.027,0.098 -0.109,0.113 -0.199,0.113 l -2.258,0.008 c -0.078,0 -0.132,-0.109 -0.109,-0.195 0.027,-0.094 0.121,-0.121 0.203,-0.121 l 0.403,-0.008 0.187,-0.656 -0.336,-0.219 c -0.07,-0.043 -0.133,-0.117 -0.105,-0.211 0.023,-0.086 0.125,-0.148 0.195,-0.105 l 1.91,1.191 c 0.074,0.043 0.141,0.105 0.109,0.203"
                 style="fill:#287ac8;fill-opacity:1;fill-rule:evenodd;stroke:none"
                 id="path236" /><path
                 d="m 33.773,26.199 c -0.218,-0.113 -0.371,-0.039 -0.472,0.168 l -0.262,0.512 0.68,0.348 0.261,-0.512 c 0.133,-0.262 0.032,-0.395 -0.207,-0.516 m -0.964,-0.492 c -0.219,-0.109 -0.371,-0.039 -0.477,0.168 l -0.262,0.512 0.684,0.347 0.258,-0.511 c 0.136,-0.262 0.035,-0.395 -0.203,-0.516 m 1.457,1.152 -0.407,0.797 -2.218,-1.129 0.406,-0.797 c 0.187,-0.363 0.531,-0.5 0.906,-0.308 0.211,0.105 0.348,0.211 0.418,0.449 0.211,-0.082 0.383,-0.043 0.547,0.043 0.402,0.203 0.562,0.527 0.348,0.945"
                 style="fill:#287ac8;fill-opacity:1;fill-rule:evenodd;stroke:none"
                 id="path238" /><path
                 d="m 29.945,31.613 0.075,0.68 -0.305,0.262 -1.527,-1.758 c -0.067,-0.078 -0.071,-0.149 0.015,-0.227 0.09,-0.074 0.16,-0.058 0.227,0.016 l 1.238,1.426 -0.063,-0.543 -0.031,-0.039 c -0.066,-0.075 -0.094,-0.176 -0.008,-0.25 0.094,-0.078 0.184,-0.035 0.247,0.039 l 0.035,0.039 0.527,0.14 -1.234,-1.425 c -0.067,-0.078 -0.071,-0.153 0.015,-0.227 0.086,-0.078 0.157,-0.062 0.227,0.016 l 1.527,1.758 -0.301,0.261 -0.664,-0.168 z"
                 style="fill:#287ac8;fill-opacity:1;fill-rule:evenodd;stroke:none"
                 id="path240" /><path
                 d="m 26.734,31.621 c 0.133,-0.086 0.262,-0.121 0.422,-0.078 0.153,0.043 0.227,0.129 0.309,0.254 l 0.973,1.496 c 0.054,0.086 0.05,0.16 -0.047,0.223 -0.098,0.062 -0.168,0.039 -0.223,-0.047 l -0.969,-1.5 C 27.098,31.82 27.031,31.813 26.91,31.891 l -0.457,0.297 c -0.121,0.078 -0.14,0.144 -0.043,0.292 l 0.969,1.5 c 0.059,0.086 0.051,0.157 -0.047,0.219 -0.094,0.063 -0.164,0.039 -0.219,-0.047 l -0.972,-1.496 c -0.078,-0.121 -0.129,-0.23 -0.106,-0.386 0.028,-0.165 0.11,-0.262 0.242,-0.352 l 0.457,-0.297 z"
                 style="fill:#287ac8;fill-opacity:1;fill-rule:evenodd;stroke:none"
                 id="path242" /><path
                 d="m 25.152,34.719 -0.074,-0.207 c -0.043,-0.121 -0.18,-0.078 -0.262,-0.047 l -0.668,0.242 0.172,0.469 0.668,-0.246 c 0.09,-0.032 0.211,-0.09 0.164,-0.211 m -0.015,0.5 -1.008,0.367 -0.797,-2.188 c -0.035,-0.097 -0.012,-0.164 0.094,-0.207 0.109,-0.039 0.172,0 0.207,0.098 l 0.406,1.117 0.07,-0.023 0.399,-1.488 c 0.015,-0.059 0.039,-0.11 0.101,-0.133 0.082,-0.028 0.172,0.004 0.204,0.086 0.023,0.058 0,0.129 -0.016,0.187 l -0.324,1.215 0.277,-0.102 c 0.238,-0.085 0.527,-0.027 0.629,0.254 l 0.074,0.207 c 0.098,0.266 -0.078,0.524 -0.316,0.61"
                 style="fill:#287ac8;fill-opacity:1;fill-rule:evenodd;stroke:none"
                 id="path244" /><path
                 d="M 22.031,34.84 C 22.02,34.758 21.992,34.703 21.945,34.641 L 21.547,34.086 C 21.52,34.047 21.488,34 21.426,34.008 c -0.063,0.012 -0.078,0.066 -0.094,0.113 l -0.207,0.649 c -0.023,0.074 -0.031,0.132 -0.02,0.214 0.016,0.106 0.051,0.164 0.114,0.246 l 0.375,0.528 c 0.031,0.047 0.054,0.09 0.121,0.078 0.066,-0.012 0.074,-0.059 0.094,-0.113 L 22,35.105 c 0.035,-0.097 0.051,-0.164 0.031,-0.265 m 0.293,0.312 -0.219,0.68 c -0.05,0.16 -0.164,0.289 -0.339,0.32 C 21.59,36.18 21.441,36.09 21.34,35.953 l -0.414,-0.578 c -0.078,-0.113 -0.117,-0.203 -0.137,-0.34 -0.023,-0.148 0.004,-0.254 0.043,-0.39 l 0.199,-0.629 c 0.055,-0.164 0.16,-0.293 0.344,-0.325 0.184,-0.027 0.328,0.063 0.426,0.204 l 0.383,0.535 c 0.086,0.121 0.14,0.207 0.164,0.359 0.023,0.137 0.015,0.231 -0.024,0.363"
                 style="fill:#287ac8;fill-opacity:1;fill-rule:evenodd;stroke:none"
                 id="path246" /><path
                 d="m 18.676,36.098 0.472,0.027 c 0.079,0.004 0.157,0.051 0.149,0.164 -0.004,0.117 -0.086,0.16 -0.168,0.152 l -1.258,-0.066 c -0.082,-0.004 -0.156,-0.051 -0.152,-0.168 0.008,-0.113 0.086,-0.156 0.168,-0.148 l 0.472,0.023 0.094,-1.844 -0.469,-0.027 C 17.902,34.207 17.828,34.16 17.832,34.043 17.84,33.93 17.918,33.887 18,33.891 l 1.258,0.066 c 0.086,0.004 0.16,0.055 0.152,0.168 -0.004,0.117 -0.082,0.156 -0.168,0.152 l -0.469,-0.023 -0.097,1.844 z"
                 style="fill:#287ac8;fill-opacity:1;fill-rule:evenodd;stroke:none"
                 id="path248" /><path
                 d="m 16.207,34.73 -0.191,-0.609 c -0.036,-0.125 -0.067,-0.144 -0.2,-0.164 l -0.058,-0.012 -0.289,1.825 0.039,0.007 c 0.144,0.024 0.172,0.032 0.262,-0.093 l 0.343,-0.493 c 0.059,-0.086 0.106,-0.14 0.121,-0.25 0.012,-0.078 -0.004,-0.132 -0.027,-0.211 m 0.344,0.266 c -0.024,0.145 -0.071,0.234 -0.153,0.352 l -0.367,0.511 c -0.14,0.2 -0.281,0.282 -0.527,0.243 l -0.527,-0.086 c -0.098,-0.012 -0.176,-0.071 -0.161,-0.184 0.02,-0.121 0.114,-0.144 0.219,-0.129 l 0.117,0.02 0.289,-1.828 -0.152,-0.024 c -0.082,-0.012 -0.148,-0.07 -0.133,-0.183 0.02,-0.114 0.102,-0.145 0.184,-0.133 l 0.523,0.082 c 0.246,0.039 0.379,0.136 0.453,0.379 l 0.196,0.621 c 0.039,0.121 0.058,0.234 0.039,0.359"
                 style="fill:#287ac8;fill-opacity:1;fill-rule:evenodd;stroke:none"
                 id="path250" /><path
                 d="m 13.559,32.973 c 0.148,0.058 0.25,0.14 0.308,0.297 0.055,0.152 0.024,0.261 -0.031,0.398 l -0.668,1.656 c -0.039,0.094 -0.102,0.133 -0.207,0.086 -0.109,-0.043 -0.125,-0.109 -0.09,-0.203 l 0.668,-1.656 c 0.066,-0.168 0.035,-0.231 -0.098,-0.281 l -0.503,-0.207 c -0.133,-0.051 -0.204,-0.032 -0.27,0.132 L 12,34.852 c -0.039,0.093 -0.102,0.132 -0.207,0.089 -0.109,-0.043 -0.129,-0.113 -0.09,-0.211 l 0.668,-1.652 c 0.055,-0.137 0.113,-0.238 0.258,-0.308 0.148,-0.075 0.281,-0.063 0.426,-0.004 l 0.504,0.207 z"
                 style="fill:#287ac8;fill-opacity:1;fill-rule:evenodd;stroke:none"
                 id="path252" /><path
                 d="m 9.559,33.344 1.093,-1.684 c 0.055,-0.086 0.125,-0.109 0.219,-0.047 0.098,0.063 0.106,0.133 0.047,0.219 l -1.094,1.684 0.262,0.172 0.062,-0.098 c 0.055,-0.086 0.125,-0.11 0.223,-0.047 0.094,0.062 0.102,0.137 0.047,0.223 L 10.18,34.129 8.855,33.27 9.09,32.902 c 0.058,-0.082 0.125,-0.109 0.223,-0.047 0.097,0.063 0.101,0.137 0.046,0.223 l -0.062,0.098 0.262,0.168 z"
                 style="fill:#287ac8;fill-opacity:1;fill-rule:evenodd;stroke:none"
                 id="path254" /><path
                 d="m 6.988,31.094 c -0.023,0.004 -0.074,0.008 -0.093,0.031 -0.04,0.039 0.023,0.082 0.046,0.105 l 0.489,0.473 c 0.07,0.067 0.121,0.094 0.199,0.016 0.059,-0.063 0.144,-0.067 0.211,0 0.086,0.078 0.062,0.176 -0.008,0.246 -0.078,0.082 -0.207,0.121 -0.32,0.117 C 7.391,32.074 7.301,32.02 7.211,31.938 L 6.723,31.465 C 6.652,31.395 6.598,31.344 6.57,31.242 6.543,31.113 6.574,30.996 6.664,30.902 6.742,30.82 6.813,30.801 6.922,30.785 l 1.769,-0.25 C 8.715,30.527 8.781,30.527 8.797,30.508 8.832,30.473 8.766,30.426 8.75,30.406 L 8.25,29.922 C 8.184,29.859 8.141,29.836 8.07,29.902 8.012,29.965 7.918,29.98 7.852,29.918 7.77,29.84 7.793,29.734 7.859,29.66 c 0.082,-0.078 0.207,-0.117 0.317,-0.109 0.125,0.012 0.219,0.066 0.304,0.152 l 0.508,0.488 c 0.157,0.153 0.203,0.368 0.035,0.539 -0.074,0.079 -0.16,0.098 -0.261,0.114 l -1.774,0.25 z"
                 style="fill:#287ac8;fill-opacity:1;fill-rule:evenodd;stroke:none"
                 id="path256" /><path
                 d="M 3.5,26.035 C 3.477,26.031 3.43,26.02 3.402,26.031 3.352,26.055 3.395,26.117 3.41,26.148 l 0.297,0.61 c 0.043,0.09 0.082,0.133 0.18,0.082 0.082,-0.039 0.16,-0.016 0.203,0.074 0.051,0.102 -0.004,0.184 -0.094,0.231 C 3.895,27.191 3.758,27.184 3.656,27.141 3.543,27.094 3.477,27.012 3.422,26.902 L 3.125,26.293 C 3.078,26.199 3.047,26.137 3.059,26.027 3.074,25.902 3.148,25.797 3.262,25.742 3.363,25.695 3.438,25.699 3.547,25.723 l 1.746,0.367 c 0.023,0.004 0.086,0.023 0.109,0.012 0.043,-0.02 0,-0.09 -0.011,-0.114 L 5.086,25.367 C 5.047,25.285 5.012,25.246 4.926,25.289 4.848,25.324 4.754,25.309 4.715,25.223 4.664,25.121 4.719,25.031 4.813,24.988 c 0.101,-0.05 0.23,-0.043 0.332,0.004 0.113,0.051 0.179,0.137 0.234,0.246 l 0.309,0.633 c 0.097,0.195 0.066,0.414 -0.149,0.52 -0.098,0.047 -0.184,0.035 -0.289,0.015 L 3.5,26.035 z"
                 style="fill:#287ac8;fill-opacity:1;fill-rule:evenodd;stroke:none"
                 id="path258" /><path
                 d="m 3.66,22.961 -0.765,0.48 0.902,0.004 -0.137,-0.484 z m 0.961,0.801 -2.254,0.004 C 2.281,23.77 2.195,23.754 2.168,23.652 2.137,23.551 2.203,23.496 2.277,23.449 L 4.188,22.25 c 0.066,-0.043 0.171,0.016 0.195,0.105 0.027,0.094 -0.039,0.165 -0.106,0.208 l -0.336,0.222 0.188,0.656 0.402,0.008 c 0.078,0 0.176,0.028 0.199,0.121 0.028,0.086 -0.031,0.192 -0.109,0.192"
                 style="fill:#287ac8;fill-opacity:1;fill-rule:evenodd;stroke:none"
                 id="path260" /><path
                 d="m 1.945,20.191 2.008,-0.105 c 0.102,-0.004 0.16,0.039 0.168,0.152 0.004,0.117 -0.051,0.164 -0.152,0.168 L 1.965,20.512 1.98,20.82 2.094,20.816 c 0.101,-0.007 0.164,0.036 0.168,0.149 0.008,0.117 -0.047,0.164 -0.149,0.168 L 1.676,21.156 1.594,19.578 2.027,19.559 c 0.102,-0.008 0.164,0.035 0.168,0.148 0.008,0.117 -0.047,0.164 -0.148,0.168 l -0.117,0.008 0.015,0.308 z"
                 style="fill:#287ac8;fill-opacity:1;fill-rule:evenodd;stroke:none"
                 id="path262" /><path
                 d="M 1.992,17.309 1.918,17.773 C 1.906,17.855 1.848,17.926 1.734,17.906 1.621,17.887 1.59,17.805 1.602,17.723 l 0.199,-1.246 c 0.012,-0.079 0.066,-0.149 0.179,-0.129 0.118,0.015 0.149,0.097 0.133,0.179 l -0.074,0.465 1.828,0.293 0.074,-0.469 c 0.012,-0.082 0.071,-0.148 0.184,-0.132 0.113,0.019 0.145,0.101 0.133,0.183 L 4.059,18.113 C 4.047,18.195 3.992,18.262 3.879,18.246 3.762,18.227 3.73,18.145 3.742,18.063 L 3.816,17.598 1.992,17.309 z"
                 style="fill:#287ac8;fill-opacity:1;fill-rule:evenodd;stroke:none"
                 id="path264" /><path
                 d="M 2.863,13.879 C 2.848,13.859 2.82,13.816 2.793,13.809 2.742,13.797 2.73,13.867 2.719,13.902 l -0.188,0.653 c -0.023,0.093 -0.023,0.152 0.078,0.179 0.086,0.028 0.129,0.098 0.106,0.192 C 2.684,15.035 2.59,15.063 2.488,15.031 2.383,15.004 2.285,14.906 2.238,14.805 2.188,14.695 2.191,14.59 2.223,14.473 L 2.41,13.82 c 0.028,-0.097 0.051,-0.168 0.129,-0.242 0.098,-0.082 0.219,-0.109 0.344,-0.074 0.105,0.031 0.156,0.082 0.222,0.172 l 1.051,1.441 c 0.016,0.02 0.051,0.078 0.074,0.082 0.047,0.012 0.059,-0.066 0.067,-0.09 L 4.488,14.441 C 4.512,14.355 4.516,14.305 4.422,14.277 4.34,14.254 4.281,14.176 4.309,14.086 4.34,13.98 4.441,13.949 4.539,13.977 c 0.106,0.031 0.199,0.125 0.242,0.226 0.055,0.113 0.047,0.223 0.012,0.34 L 4.598,15.219 C 4.539,15.43 4.371,15.57 4.141,15.508 4.035,15.477 3.977,15.41 3.918,15.324 L 2.863,13.879 z"
                 style="fill:#287ac8;fill-opacity:1;fill-rule:evenodd;stroke:none"
                 id="path266" /><path
                 d="m 4.035,10.91 -0.324,0.637 c -0.043,0.082 -0.09,0.207 0.023,0.266 l 0.2,0.101 C 4.047,11.973 4.117,11.852 4.156,11.77 L 4.48,11.137 4.035,10.91 z m 2.004,0.84 C 5.988,11.855 5.918,11.867 5.824,11.82 L 4.766,11.281 4.73,11.348 5.453,12.703 c 0.031,0.059 0.043,0.113 0.016,0.168 C 5.43,12.953 5.34,12.988 5.262,12.949 5.207,12.918 5.172,12.852 5.145,12.801 l -0.59,-1.11 -0.133,0.262 C 4.305,12.18 4.055,12.332 3.789,12.199 L 3.59,12.098 C 3.336,11.969 3.293,11.66 3.406,11.438 l 0.489,-0.958 2.074,1.055 c 0.094,0.047 0.121,0.113 0.07,0.215"
                 style="fill:#287ac8;fill-opacity:1;fill-rule:evenodd;stroke:none"
                 id="path268" /><path
                 d="M 7.27,9.453 6.66,8.992 6.375,9.367 C 6.324,9.434 6.242,9.469 6.152,9.398 6.059,9.328 6.07,9.242 6.121,9.176 L 6.402,8.801 5.793,8.34 5.133,9.219 C 5.078,9.285 5,9.32 4.906,9.25 4.813,9.18 4.824,9.094 4.875,9.027 L 5.73,7.891 7.719,9.391 6.863,10.523 C 6.813,10.59 6.73,10.625 6.637,10.555 6.547,10.488 6.559,10.398 6.605,10.332 L 7.27,9.453 z"
                 style="fill:#287ac8;fill-opacity:1;fill-rule:evenodd;stroke:none"
                 id="path270" /><path
                 d="M 8.75,7.582 8.305,6.352 7.969,5.965 C 7.898,5.887 7.895,5.813 7.984,5.738 8.07,5.664 8.141,5.68 8.211,5.754 l 0.328,0.383 c 0.027,0.031 0.055,0.066 0.07,0.105 L 9.168,7.82 C 9.195,7.898 9.215,7.965 9.141,8.031 9.066,8.094 9.004,8.066 8.926,8.031 L 7.445,7.254 C 7.406,7.234 7.375,7.207 7.348,7.172 L 7.016,6.793 C 6.949,6.715 6.945,6.641 7.031,6.566 7.117,6.488 7.191,6.504 7.258,6.582 L 7.594,6.965 8.75,7.582 z"
                 style="fill:#287ac8;fill-opacity:1;fill-rule:evenodd;stroke:none"
                 id="path272" /><path
                 d="M 10.141,4.633 9.734,4.867 C 9.66,4.906 9.574,4.906 9.516,4.809 9.457,4.707 9.5,4.633 9.574,4.59 l 1.09,-0.629 c 0.074,-0.043 0.16,-0.043 0.219,0.055 0.058,0.101 0.015,0.179 -0.059,0.222 L 10.418,4.473 11.344,6.074 11.75,5.84 c 0.07,-0.043 0.16,-0.043 0.219,0.058 0.058,0.098 0.011,0.176 -0.059,0.215 L 10.82,6.746 C 10.746,6.785 10.656,6.785 10.598,6.688 10.543,6.586 10.586,6.508 10.66,6.469 L 11.066,6.23 10.141,4.633 z"
                 style="fill:#287ac8;fill-opacity:1;fill-rule:evenodd;stroke:none"
                 id="path274" /><path
                 d="m 13.215,4.93 0.121,-2.114 0.398,-0.144 0.797,2.187 c 0.032,0.098 0.012,0.164 -0.097,0.207 -0.11,0.039 -0.168,0 -0.204,-0.097 L 13.629,3.316 13.496,5.406 13.102,5.551 12.305,3.363 C 12.27,3.266 12.289,3.195 12.398,3.156 c 0.11,-0.039 0.168,0 0.204,0.098 l 0.613,1.676 z"
                 style="fill:#287ac8;fill-opacity:1;fill-rule:evenodd;stroke:none"
                 id="path276" /><path
                 d="M 16.227,4.648 C 16.07,4.676 15.941,4.656 15.813,4.551 15.688,4.449 15.652,4.34 15.633,4.195 L 15.352,2.434 c -0.016,-0.106 0.019,-0.168 0.132,-0.184 0.114,-0.02 0.168,0.031 0.184,0.133 l 0.277,1.762 c 0.032,0.175 0.09,0.21 0.235,0.191 L 16.715,4.25 c 0.14,-0.023 0.187,-0.078 0.16,-0.254 L 16.598,2.234 c -0.02,-0.101 0.019,-0.164 0.132,-0.183 0.114,-0.02 0.168,0.031 0.184,0.133 l 0.277,1.761 c 0.024,0.145 0.028,0.266 -0.058,0.399 -0.094,0.14 -0.211,0.195 -0.367,0.219 l -0.539,0.085 z"
                 style="fill:#287ac8;fill-opacity:1;fill-rule:evenodd;stroke:none"
                 id="path278" /><path
                 d="m 18.828,0.512 c -10.305,0 -18.656,8.351 -18.656,18.66 0,10.305 8.351,18.656 18.656,18.656 10.309,0 18.66,-8.351 18.66,-18.656 0,-10.309 -8.351,-18.66 -18.66,-18.66 m 0,37.488 C 8.43,38 0,29.57 0,19.172 0,8.773 8.43,0.34 18.828,0.34 29.23,0.34 37.66,8.773 37.66,19.172 37.66,29.57 29.23,38 18.828,38"
                 style="fill:#287ac8;fill-opacity:1;fill-rule:evenodd;stroke:none"
                 id="path280" /><path
                 d="M 18.828,1.324 C 8.973,1.324 0.98,9.313 0.98,19.172 c 0,9.859 7.993,17.848 17.848,17.848 9.86,0 17.852,-7.989 17.852,-17.848 0,-9.859 -7.992,-17.848 -17.852,-17.848 m 0,36.293 C 8.645,37.617 0.387,29.359 0.387,19.172 0.387,8.984 8.645,0.723 18.828,0.723 c 10.188,0 18.449,8.261 18.449,18.449 0,10.187 -8.261,18.445 -18.449,18.445"
                 style="fill:#287ac8;fill-opacity:1;fill-rule:evenodd;stroke:none"
                 id="path282" /><path
                 d="m 18.828,5.543 c -7.523,0 -13.625,6.102 -13.625,13.625 0,7.527 6.102,13.629 13.625,13.629 7.527,0 13.629,-6.102 13.629,-13.629 0,-7.523 -6.102,-13.625 -13.629,-13.625 m 0,27.852 c -7.851,0 -14.219,-6.372 -14.219,-14.227 0,-7.852 6.368,-14.219 14.219,-14.219 7.856,0 14.223,6.367 14.223,14.219 0,7.855 -6.367,14.227 -14.223,14.227"
                 style="fill:#287ac8;fill-opacity:1;fill-rule:evenodd;stroke:none"
                 id="path284" /></g></g></g></g></g></g></svg>